<svg width="32" height="26" viewBox="0 0 32 26" fill="none" xmlns="http://www.w3.org/2000/svg">
<path d="M31.9993 15.9357C31.9823 11.6924 30.2804 7.62958 27.2679 4.64108C24.2554 1.65257 20.1791 -0.0168452 15.9357 0.000128174C11.6924 0.0171016 7.62953 1.71903 4.64103 4.73154C1.65253 7.74405 -0.0168452 11.8204 0.000128177 16.0637C-0.00240822 18.723 0.680637 21.3379 1.98334 23.6562C2.22532 24.0831 2.57658 24.4379 3.00105 24.6841C3.42551 24.9302 3.90788 25.0589 4.39856 25.0569H27.6103C28.0922 25.0607 28.5666 24.9369 28.9851 24.698C29.4037 24.4591 29.7516 24.1138 29.9935 23.697C31.3333 21.3314 32.0252 18.6542 31.9993 15.9357ZM6.6865 19.6353C6.73887 19.7624 6.76534 19.8987 6.76436 20.0362C6.76337 20.1737 6.73496 20.3096 6.68077 20.436C6.62659 20.5624 6.54772 20.6767 6.4488 20.7722C6.34988 20.8677 6.23289 20.9426 6.10468 20.9923C5.97864 21.0438 5.84377 21.0703 5.70761 21.0702C5.49743 21.0706 5.29184 21.0087 5.11692 20.8922C4.94199 20.7756 4.80561 20.6098 4.72508 20.4156C3.82581 18.2409 3.5959 15.8473 4.06476 13.5412C4.53363 11.2351 5.67996 9.12135 7.35703 7.47046C9.62831 5.21751 12.693 3.94579 15.8921 3.92874H16.0012C18.265 3.92735 20.4851 4.5526 22.4155 5.73524C22.5331 5.80642 22.6352 5.90032 22.716 6.01142C22.7969 6.12252 22.8547 6.24861 22.8863 6.38233C22.9178 6.51605 22.9224 6.65474 22.8998 6.79026C22.8772 6.92577 22.8277 7.05535 22.7544 7.17155C22.6028 7.40687 22.3651 7.57351 22.0922 7.63576C21.8192 7.69801 21.5328 7.65093 21.2941 7.50464C19.7011 6.52913 17.8692 6.01343 16.0012 6.01453H15.8964C13.2575 6.02954 10.7298 7.07985 8.85734 8.93953C7.47275 10.3041 6.52642 12.0504 6.13922 13.9555C5.75202 15.8605 5.94155 17.8378 6.68359 19.6346L6.6865 19.6353ZM17.8026 21.2548C17.5301 21.5565 17.1997 21.8003 16.8311 21.9715C16.4624 22.1427 16.063 22.2379 15.6568 22.2515C15.2505 22.2651 14.8457 22.1968 14.4664 22.0505C14.0871 21.9043 13.7412 21.6831 13.4492 21.4003C12.9511 20.9155 12.6424 20.2688 12.5785 19.5766C12.5146 18.8844 12.6999 18.1922 13.1009 17.6244C13.3233 17.3133 13.6033 17.0477 13.9256 16.8418L24.5675 8.39409C24.6727 8.31796 24.8006 8.27956 24.9303 8.28516C25.0601 8.29076 25.1842 8.34007 25.2825 8.42498C25.3808 8.50989 25.4475 8.62543 25.4719 8.75301C25.4963 8.88058 25.4769 9.01272 25.4169 9.12791L18.2302 20.6316C18.1149 20.8557 17.9714 21.0642 17.8033 21.252L17.8026 21.2548ZM27.278 20.4193C27.1694 20.6774 26.9635 20.8824 26.7048 20.9896C26.4461 21.0969 26.1556 21.0978 25.8962 20.9923C25.7683 20.9422 25.6516 20.8671 25.553 20.7715C25.4543 20.6759 25.3757 20.5617 25.3215 20.4354C25.2674 20.3092 25.2389 20.1735 25.2377 20.0361C25.2364 19.8987 25.2625 19.7625 25.3144 19.6353C26.1877 17.5271 26.293 15.1791 25.6118 13.0012C25.5711 12.8697 25.5569 12.7315 25.5701 12.5944C25.5832 12.4574 25.6234 12.3244 25.6883 12.203C25.7533 12.0817 25.8417 11.9745 25.9484 11.8875C26.0551 11.8006 26.178 11.7356 26.31 11.6966C26.577 11.6139 26.8659 11.6396 27.1141 11.7682C27.3624 11.8968 27.55 12.1179 27.6365 12.3838C28.4633 15.0214 28.3364 17.8658 27.278 20.4193Z" fill="#52C5FA"/>
</svg>
