<svg width="32" height="36" viewBox="0 0 32 36" fill="none" xmlns="http://www.w3.org/2000/svg">
<path d="M29.9682 19.0342C27.8271 18.4495 25.8182 17.4591 24.0506 16.1169C23.776 15.9145 23.444 15.8054 23.1029 15.8054C22.7619 15.8054 22.4298 15.9145 22.1552 16.1169C20.3895 17.4602 18.3815 18.4507 16.2409 19.0342C16.0197 19.0885 15.8229 19.2154 15.6823 19.3946C15.5416 19.5738 15.465 19.7951 15.4649 20.0229V24.2772C15.4625 25.3975 15.6213 26.5124 15.9365 27.5874C16.8424 30.6217 18.8174 34.4418 23.1025 35.7154C27.3909 34.4418 29.3666 30.6217 30.2709 27.5874C30.5884 26.5129 30.7473 25.3977 30.7425 24.2772V20.0229C30.7426 19.7953 30.6663 19.5741 30.5259 19.3949C30.3855 19.2157 30.1892 19.0887 29.9682 19.0342ZM27.606 23.9671L22.6504 28.9187C22.583 28.9871 22.5027 29.0414 22.4141 29.0785C22.3256 29.1156 22.2305 29.1346 22.1345 29.1346C22.0385 29.1346 21.9434 29.1156 21.8549 29.0785C21.7663 29.0414 21.686 28.9871 21.6187 28.9187L19.1753 26.4835C19.0541 26.361 18.9861 26.1956 18.9861 26.0232C18.9861 25.8509 19.0541 25.6855 19.1753 25.563L20.0382 24.7001C20.1606 24.5787 20.326 24.5105 20.4985 24.5105C20.6709 24.5105 20.8363 24.5787 20.9587 24.7001L21.8719 25.6133C21.9064 25.6478 21.9473 25.6753 21.9923 25.694C22.0374 25.7126 22.0857 25.7222 22.1345 25.7222C22.1833 25.7222 22.2315 25.7126 22.2766 25.694C22.3217 25.6753 22.3626 25.6478 22.3971 25.6133L25.8218 22.1878C25.8821 22.1272 25.9539 22.079 26.0329 22.0462C26.1118 22.0134 26.1965 21.9966 26.2821 21.9966C26.3676 21.9966 26.4523 22.0134 26.5313 22.0462C26.6103 22.079 26.682 22.1272 26.7423 22.1878L27.6052 23.0507C27.7261 23.1723 27.794 23.3369 27.794 23.5085C27.794 23.68 27.7261 23.8447 27.6052 23.9663L27.606 23.9671Z" fill="#52C5FA"/>
<path d="M1.42285 18.5018C3.40916 20.2064 7.30306 21.4865 12.0257 21.916V17.8312C12.037 17.4977 12.1699 17.1798 12.3992 16.9374C12.6285 16.6949 12.9385 16.5445 13.2709 16.5146C14.9783 16.269 16.6279 15.7191 18.1413 14.8912C18.2138 14.8525 18.2704 14.7895 18.301 14.7133C18.3316 14.6371 18.3343 14.5525 18.3087 14.4744C18.2831 14.3963 18.2308 14.3298 18.161 14.2865C18.0911 14.2432 18.0083 14.2259 17.927 14.2377C17.1548 14.2831 16.3652 14.306 15.5583 14.306C6.99129 14.306 0.0453252 11.6443 0.0453252 8.35352L0.00390625 8.52236V15.9481C0.039184 16.4516 0.184522 16.9413 0.429689 17.3826C0.674857 17.8238 1.01392 18.2058 1.42285 18.5018ZM3.3962 13.9147C3.72244 13.8837 4.05036 13.9522 4.33695 14.1112C4.62353 14.2701 4.85534 14.512 5.00183 14.8052C5.14832 15.0983 5.20264 15.4289 5.1577 15.7535C5.11275 16.0782 4.97058 16.3815 4.74995 16.6238C4.52932 16.8661 4.24056 17.0361 3.92157 17.1112C3.60258 17.1862 3.26834 17.163 2.96279 17.0446C2.65723 16.9261 2.39465 16.718 2.20962 16.4476C2.02458 16.1771 1.92579 15.8569 1.92612 15.5292C1.91641 15.3266 1.94674 15.1241 2.0154 14.9333C2.08406 14.7424 2.18969 14.567 2.32624 14.417C2.46279 14.2671 2.62759 14.1454 2.81118 14.0592C2.99477 13.973 3.19359 13.9239 3.3962 13.9147Z" fill="#52C5FA"/>
<path d="M31.8968 7.75122C31.9397 7.93759 31.9617 8.12813 31.9625 8.31939C31.9625 10.2878 29.6693 12.0323 26.1367 13.116C26.0745 13.1351 26.0189 13.171 25.976 13.2199C25.9331 13.2688 25.9046 13.3286 25.8937 13.3927C25.8828 13.4568 25.8897 13.5227 25.914 13.5831C25.9383 13.6434 25.9788 13.6958 26.0311 13.7345C27.7756 15.0679 29.7974 15.9922 31.9471 16.4392C31.9822 16.2661 32.0001 16.0898 32.0006 15.9131V8.48745C32.0007 8.23837 31.9658 7.99054 31.8968 7.75122Z" fill="#52C5FA"/>
<path d="M12.0988 24.1896C5.19177 23.584 0.0422117 21.2211 0.0422117 18.3938L0 18.5626V25.9892C0.0346787 26.4951 0.180501 26.987 0.42717 27.43C0.67384 27.8729 1.01523 28.256 1.42697 28.5519C3.8362 30.612 8.42165 32.0967 14.5129 32.1698C13.5573 30.7525 12.8779 29.1676 12.5104 27.4982C12.2355 26.4169 12.0972 25.3053 12.0988 24.1896ZM3.4133 27.1931C3.08714 27.2235 2.75942 27.1546 2.47315 26.9954C2.18688 26.8361 1.95548 26.5939 1.80936 26.3008C1.66323 26.0076 1.60919 25.677 1.65438 25.3526C1.69957 25.0281 1.84185 24.725 2.06253 24.4829C2.28321 24.2408 2.57192 24.0711 2.89081 23.9962C3.2097 23.9212 3.54387 23.9445 3.84929 24.0629C4.15471 24.1814 4.41717 24.3894 4.60216 24.6598C4.78716 24.9301 4.88597 25.2501 4.88576 25.5777C4.90403 25.988 4.75858 26.3888 4.48138 26.6919C4.20417 26.9949 3.81798 27.1755 3.40765 27.1938L3.4133 27.1931Z" fill="#52C5FA"/>
<path d="M15.999 11.9057C24.8144 11.9057 31.9601 9.23996 31.9601 5.95244C31.9601 2.66493 24.8168 0 15.999 0C7.18112 0 0.0371094 2.66493 0.0371094 5.95244C0.0371094 9.23996 7.18356 11.9057 15.999 11.9057Z" fill="#52C5FA"/>
</svg>
