<svg width="32" height="24" viewBox="0 0 32 24" fill="none" xmlns="http://www.w3.org/2000/svg">
<path d="M31.8755 13.9207L27.3249 1.9635C27.1886 1.60349 26.9461 1.29348 26.6296 1.07438C26.3131 0.855273 25.9376 0.737417 25.5526 0.736572H22.1394C22.0471 0.737491 21.9569 0.76432 21.879 0.813899C21.801 0.863477 21.7385 0.933846 21.6986 1.01711C21.6586 1.10038 21.6427 1.19323 21.6527 1.28505C21.6628 1.37686 21.6984 1.46401 21.7555 1.53665L23.9373 4.35191C24.2361 4.50954 24.4654 4.77303 24.5802 5.09082L27.5897 13.3454C27.6465 13.4921 27.6669 13.6504 27.6491 13.8068C27.6313 13.9631 27.5758 14.1129 27.4874 14.243C27.399 14.3732 27.2803 14.4799 27.1416 14.5541C27.0028 14.6283 26.8481 14.6678 26.6908 14.6691H22.0435C21.824 14.6697 21.6089 14.7298 21.4208 14.8428C21.2327 14.9559 21.0787 15.1177 20.9751 15.3112L19.6725 17.725C19.5689 17.9186 19.4147 18.0804 19.2265 18.1935C19.0383 18.3066 18.823 18.3666 18.6035 18.3672H13.1118C12.8799 18.3668 12.653 18.2999 12.458 18.1745C12.263 18.0491 12.1081 17.8704 12.0115 17.6596L10.9561 15.3818C10.8598 15.1699 10.7047 14.9901 10.5091 14.8639C10.3135 14.7376 10.0857 14.6702 9.85289 14.6698H5.31398C5.15676 14.6682 5.00218 14.6285 4.86361 14.5542C4.72504 14.4799 4.60659 14.3732 4.51826 14.2431C4.42992 14.113 4.37438 13.9635 4.35641 13.8073C4.33844 13.6511 4.35852 13.4928 4.41501 13.3461L7.42452 5.09153C7.53891 4.77487 7.76629 4.5117 8.06302 4.35262L10.2448 1.53807C10.3019 1.46548 10.3375 1.3784 10.3476 1.28665C10.3577 1.1949 10.3418 1.10213 10.3019 1.01889C10.262 0.935647 10.1997 0.865217 10.1219 0.815585C10.0441 0.765954 9.95388 0.739134 9.86159 0.738082H6.4492C6.06492 0.739505 5.69015 0.857511 5.37444 1.0766C5.05874 1.29568 4.81696 1.60552 4.68117 1.965L0.129922 13.9221C0.0387857 14.1608 -0.00516223 14.415 0.000482278 14.6705V20.0524C-0.00532449 21.0929 0.402046 22.0933 1.13321 22.8337C1.86438 23.5741 2.85952 23.9941 3.90009 24.0014H28.0995C29.1401 23.9941 30.1352 23.5741 30.8664 22.8337C31.5976 22.0933 32.0049 21.0929 31.9991 20.0524V14.6669C32.0068 14.4125 31.9648 14.159 31.8755 13.9207Z" fill="#52C5FA"/>
<path d="M11.5957 7.83775H13.6917V12.6698C13.6912 12.8183 13.7202 12.9655 13.7768 13.1028C13.8334 13.2401 13.9166 13.3648 14.0217 13.4698C14.1267 13.5748 14.2515 13.6579 14.3889 13.7145C14.5262 13.771 14.6734 13.7998 14.8219 13.7992H17.1856C17.3339 13.7992 17.4807 13.7701 17.6177 13.7133C17.7548 13.6565 17.8793 13.5733 17.9842 13.4685C18.0891 13.3636 18.1723 13.239 18.2291 13.102C18.2858 12.9649 18.315 12.8181 18.315 12.6698V7.83775H20.411C20.6225 7.83833 20.83 7.77934 21.0095 7.66747C21.1891 7.5556 21.3334 7.39535 21.4261 7.2052C21.5188 7.01504 21.5561 6.80261 21.5336 6.59227C21.5111 6.38193 21.4298 6.18219 21.299 6.01592L16.9245 0.445758C16.8146 0.306798 16.6746 0.194471 16.5152 0.117277C16.3557 0.040083 16.1809 0 16.0037 0C15.8266 0 15.6517 0.040083 15.4923 0.117277C15.3328 0.194471 15.1929 0.306798 15.083 0.445758L10.7077 6.01592C10.5769 6.18219 10.4957 6.38193 10.4732 6.59227C10.4507 6.80261 10.4879 7.01504 10.5806 7.2052C10.6733 7.39535 10.8177 7.5556 10.9972 7.66747C11.1768 7.77934 11.3842 7.83833 11.5957 7.83775Z" fill="#52C5FA"/>
</svg>
