<svg width="28" height="28" viewBox="0 0 28 28" fill="none" xmlns="http://www.w3.org/2000/svg">
<g filter="url(#filter0_i_354_586)">
<path d="M13.9993 17.5L10.4993 14M13.9993 17.5C15.629 16.8802 17.1924 16.0985 18.666 15.1666M13.9993 17.5V23.3333C13.9993 23.3333 17.5343 22.6916 18.666 21C19.926 19.11 18.666 15.1666 18.666 15.1666M10.4993 14C11.1202 12.3893 11.9019 10.8454 12.8327 9.39163C14.1921 7.21812 16.0849 5.42852 18.3312 4.19307C20.5775 2.95762 23.1025 2.3174 25.666 2.3333C25.666 5.50663 24.756 11.0833 18.666 15.1666M10.4993 14H4.66602C4.66602 14 5.30768 10.465 6.99935 9.3333C8.88935 8.0733 12.8327 9.3333 12.8327 9.3333M5.24935 19.25C3.49935 20.72 2.91602 25.0833 2.91602 25.0833C2.91602 25.0833 7.27935 24.5 8.74935 22.75C9.57768 21.77 9.56602 20.265 8.64435 19.355C8.19087 18.9221 7.59352 18.672 6.96695 18.6527C6.34037 18.6333 5.7287 18.846 5.24935 19.25Z" stroke="#52C5FA" stroke-width="1.8" stroke-linecap="round" stroke-linejoin="round"/>
</g>
<defs>
<filter id="filter0_i_354_586" x="2.01562" y="1.43311" width="24.5508" height="26.5503" filterUnits="userSpaceOnUse" color-interpolation-filters="sRGB">
<feFlood flood-opacity="0" result="BackgroundImageFix"/>
<feBlend mode="normal" in="SourceGraphic" in2="BackgroundImageFix" result="shape"/>
<feColorMatrix in="SourceAlpha" type="matrix" values="0 0 0 0 0 0 0 0 0 0 0 0 0 0 0 0 0 0 127 0" result="hardAlpha"/>
<feOffset dy="2"/>
<feGaussianBlur stdDeviation="1"/>
<feComposite in2="hardAlpha" operator="arithmetic" k2="-1" k3="1"/>
<feColorMatrix type="matrix" values="0 0 0 0 1 0 0 0 0 1 0 0 0 0 1 0 0 0 0.47 0"/>
<feBlend mode="overlay" in2="shape" result="effect1_innerShadow_354_586"/>
</filter>
</defs>
</svg>
