<svg width="28" height="28" viewBox="0 0 28 28" fill="none" xmlns="http://www.w3.org/2000/svg">
<path d="M14.5331 8.83691H14.4383C13.5024 8.83813 12.5837 9.08756 11.7757 9.5598C10.9677 10.032 10.2995 10.7102 9.83915 11.525C9.68004 11.8073 9.63952 12.1412 9.72651 12.4534C9.81351 12.7656 10.0209 13.0304 10.3031 13.1898C10.5855 13.3491 10.9195 13.3897 11.2319 13.3027C11.5442 13.2157 11.8092 13.0082 11.9685 12.7258C12.2161 12.2879 12.5755 11.9234 13.0099 11.6696C13.4444 11.4158 13.9383 11.2818 14.4415 11.2813H14.4905C14.8634 11.2876 15.2315 11.3675 15.5736 11.5164C15.9156 11.6653 16.2249 11.8802 16.4837 12.1489C16.7425 12.4175 16.9458 12.7346 17.0818 13.0819C17.2179 13.4292 17.284 13.8 17.2765 14.173C17.2005 17.3525 16.5155 20.4879 15.2586 23.4095C15.1791 23.5954 15.147 23.7981 15.1651 23.9995C15.1833 24.2008 15.251 24.3946 15.3624 24.5633C15.4737 24.732 15.6252 24.8705 15.8032 24.9664C15.9813 25.0622 16.1803 25.1124 16.3824 25.1124H16.4461C16.6747 25.1016 16.8957 25.0263 17.0835 24.8954C17.2713 24.7644 17.4183 24.5831 17.5076 24.3723C18.8883 21.1575 19.6398 17.7077 19.7216 14.2099C19.7456 12.8097 19.2126 11.4573 18.2397 10.45C17.2669 9.4427 15.9339 8.86296 14.5337 8.8382L14.5331 8.83691Z" fill="#52C5FA"/>
<path d="M10.9821 15.3012C10.891 15.1691 10.7746 15.0563 10.6395 14.9695C10.5045 14.8826 10.3536 14.8234 10.1956 14.7953C10.0376 14.7666 9.87544 14.7693 9.71849 14.8034C9.56153 14.8374 9.41283 14.902 9.2809 14.9936C9.14896 15.0851 9.03636 15.2018 8.94958 15.337C8.8628 15.4721 8.80355 15.623 8.77518 15.7811C8.30888 18.3702 7.55363 20.8989 6.52363 23.3197C6.4435 23.5056 6.4108 23.7085 6.42851 23.9102C6.44622 24.1119 6.51378 24.306 6.62509 24.4751C6.7364 24.6442 6.88798 24.783 7.06621 24.879C7.24445 24.975 7.44374 25.0253 7.6462 25.0252H7.70986C7.93822 25.0144 8.15887 24.9393 8.34652 24.8088C8.53417 24.6782 8.6812 24.4974 8.77071 24.287C9.87357 21.6955 10.6826 18.9886 11.1826 16.217C11.2115 16.0587 11.2087 15.8962 11.1743 15.739C11.1399 15.5818 11.0746 15.433 10.9821 15.3012Z" fill="#52C5FA"/>
<path d="M14.7972 4.02393H14.6336C12.3954 4.03515 10.2343 4.84311 8.53768 6.30301C6.84106 7.7629 5.71981 9.77932 5.37487 11.9908C5.35104 12.1496 5.35872 12.3115 5.39748 12.4672C5.43624 12.623 5.50529 12.7697 5.60074 12.8987C5.69618 13.0278 5.81614 13.1368 5.95373 13.2195C6.09132 13.3022 6.24386 13.357 6.40262 13.3807C6.46264 13.3898 6.52327 13.3943 6.58398 13.394C6.87644 13.3928 7.15888 13.2873 7.38051 13.0964C7.60214 12.9056 7.74844 12.642 7.79312 12.3529C8.04802 10.719 8.87667 9.22931 10.1305 8.15102C11.3843 7.07274 12.9812 6.47641 14.6349 6.46894H14.7558C15.6642 6.48476 16.5607 6.67934 17.394 7.04162C18.2272 7.4039 18.981 7.92676 19.6121 8.58034C20.2433 9.23392 20.7396 10.0054 21.0726 10.8508C21.4056 11.6962 21.5689 12.5989 21.553 13.5073C21.5148 15.7437 21.1622 17.9635 20.5055 20.1016C20.4496 20.2844 20.4373 20.4779 20.4697 20.6663C20.5021 20.8548 20.5782 21.033 20.692 21.1867C20.8057 21.3404 20.9539 21.4653 21.1247 21.5514C21.2954 21.6375 21.484 21.6823 21.6752 21.6823H21.7388C21.9892 21.6687 22.2293 21.5786 22.427 21.4244C22.6246 21.2701 22.7702 21.0589 22.8442 20.8194C23.5677 18.4625 23.9563 16.0157 23.9987 13.5506C24.0202 12.3212 23.7992 11.0996 23.3486 9.95557C22.8979 8.81154 22.2262 7.7675 21.372 6.88307C20.5178 5.99864 19.4977 5.29117 18.37 4.80103C17.2423 4.3109 16.0291 4.0477 14.7997 4.02649L14.7972 4.02393Z" fill="#52C5FA"/>
<path d="M6.01565 15.0626C5.92588 15.0421 5.8341 15.0317 5.74201 15.0315C5.46503 15.0308 5.19609 15.1246 4.9797 15.2975C4.7633 15.4704 4.61241 15.7119 4.55197 15.9822C4.19539 17.4432 3.72579 18.8743 3.14745 20.2626C3.07258 20.448 3.04438 20.6491 3.0653 20.848C3.08623 21.0469 3.15565 21.2377 3.26747 21.4035C3.3793 21.5694 3.53012 21.7053 3.7067 21.7993C3.88327 21.8932 4.08021 21.9425 4.28023 21.9426H4.34386C4.57644 21.93 4.80065 21.8515 4.9903 21.7163C5.17995 21.5811 5.3272 21.3947 5.41488 21.1789C6.04204 19.6711 6.55058 18.1165 6.93585 16.5295C6.97175 16.3728 6.97641 16.2105 6.9496 16.052C6.92278 15.8934 6.865 15.7417 6.77955 15.6055C6.6941 15.4693 6.58268 15.3512 6.45161 15.2581C6.32053 15.165 6.17239 15.0985 6.01565 15.0626Z" fill="#52C5FA"/>
<path d="M27.8563 12.3587C27.8183 12.0645 27.6748 11.7941 27.4524 11.5978C27.23 11.4015 26.9438 11.2926 26.6472 11.2915C26.5946 11.2915 26.5421 11.2947 26.49 11.3011C26.1684 11.3423 25.8764 11.5095 25.6781 11.766C25.4798 12.0224 25.3914 12.3471 25.4323 12.6686C25.6411 14.3968 25.5859 16.1467 25.2687 17.8584C25.2123 18.1775 25.2846 18.506 25.47 18.7718C25.6554 19.0376 25.9387 19.219 26.2577 19.2762C26.3289 19.2888 26.4011 19.2952 26.4734 19.2953H26.537C26.8131 19.2819 27.0763 19.1748 27.2833 18.9919C27.4904 18.8089 27.629 18.5608 27.6762 18.2885C28.0366 16.3325 28.0973 14.333 27.8563 12.3587Z" fill="#52C5FA"/>
<path d="M25.8619 9.93145C26.0553 9.9215 26.2436 9.86573 26.4113 9.76871C26.579 9.67168 26.7212 9.53618 26.8263 9.37341C26.9313 9.21064 26.9961 9.02522 27.0155 8.83246C27.0348 8.63971 27.008 8.44513 26.9374 8.26475C26.34 6.71268 25.4396 5.29506 24.2887 4.09454C23.0673 2.82344 21.6061 1.80711 19.9894 1.10431C18.3728 0.401502 16.6329 0.0261662 14.8703 3.29874e-05H14.6303C11.7988 -0.00626832 9.03905 0.890346 6.75189 2.55959C6.48963 2.75016 6.31383 3.03709 6.26311 3.35728C6.21239 3.67748 6.29092 4.0047 6.48144 4.267C6.59531 4.42268 6.7442 4.54936 6.91612 4.63681C7.08803 4.72426 7.27813 4.77003 7.47101 4.77039C7.72904 4.77087 7.9805 4.68905 8.18885 4.53683C10.0589 3.17217 12.3153 2.43919 14.6303 2.44439H14.8276C16.2696 2.46559 17.6931 2.77252 19.0157 3.34742C20.3383 3.92232 21.5337 4.75377 22.5329 5.79367C23.4592 6.76198 24.1833 7.90511 24.6629 9.15633C24.7519 9.38573 24.9084 9.5828 25.1116 9.72151C25.3148 9.86022 25.5554 9.93407 25.8014 9.93336L25.8619 9.93145Z" fill="#52C5FA"/>
<path d="M5.27535 7.33316C5.37129 7.20268 5.44036 7.05444 5.47853 6.89705C5.5167 6.73965 5.5232 6.57627 5.49768 6.41634C5.47216 6.25641 5.4151 6.10313 5.32984 5.96543C5.24459 5.82773 5.13283 5.70832 5.00105 5.61418C4.86926 5.52004 4.72008 5.45306 4.56217 5.41706C4.40427 5.38106 4.2408 5.37679 4.08123 5.40451C3.92167 5.43223 3.7692 5.49138 3.63269 5.57852C3.49618 5.66567 3.37834 5.77906 3.28603 5.91214C1.70094 8.12963 0.831592 10.7787 0.794558 13.5042C0.743119 14.8083 0.49465 16.0972 0.0576128 17.327C-0.000725927 17.5102 -0.015005 17.7046 0.0158967 17.8945C0.0467984 18.0843 0.122016 18.2642 0.235469 18.4195C0.348922 18.5748 0.49742 18.7012 0.668866 18.7883C0.840312 18.8755 1.02988 18.921 1.22221 18.9211H1.28587C1.53387 18.9076 1.77191 18.8191 1.96859 18.6674C2.16527 18.5157 2.31131 18.3079 2.38742 18.0715C2.90202 16.6017 3.18936 15.062 3.23953 13.5055C3.27552 11.289 3.98564 9.13609 5.27535 7.33316Z" fill="#52C5FA"/>
<path d="M15.313 13.3228C15.2072 13.2021 15.0785 13.1036 14.9343 13.0331C14.79 12.9626 14.6332 12.9216 14.473 12.9124C14.4469 12.9124 14.4208 12.9124 14.3947 12.9124C14.0842 12.9132 13.7857 13.032 13.5595 13.2446C13.3334 13.4573 13.1965 13.748 13.1767 14.0578C12.9482 17.7349 11.7524 21.8351 9.62311 26.2471C9.53344 26.4333 9.4924 26.6392 9.50383 26.8455C9.51525 27.0519 9.57875 27.252 9.68844 27.4271C9.79813 27.6022 9.95039 27.7467 10.131 27.8471C10.3117 27.9475 10.5148 28.0004 10.7215 28.001H10.7851C11.0043 27.9897 11.2163 27.9197 11.3991 27.7984C11.582 27.677 11.7288 27.5087 11.8244 27.3112C14.0918 22.614 15.3684 18.2064 15.6166 14.2118C15.6275 14.0509 15.6064 13.8894 15.5543 13.7368C15.5021 13.5841 15.4201 13.4434 15.313 13.3228Z" fill="#52C5FA"/>
</svg>
