<svg width="200" height="50" viewBox="0 0 200 50" fill="none" xmlns="http://www.w3.org/2000/svg">
<path d="M90.4991 19.5004L94.2991 16.7004H81.6991V33.3004H94.2991V30.5004H85.2991V26.3004H92.8991V23.5004H85.2991V19.5004H90.4991ZM74.7991 19.5004L78.5991 16.7004H64.1991V33.3004H71.6991C75.8991 33.3004 78.2991 31.4004 78.2991 28.1004C78.2991 24.9004 76.0991 23.2004 72.0991 23.2004H67.6991V19.5004H74.7991ZM71.5991 25.9004C73.8991 25.9004 74.8991 26.7004 74.8991 28.2004C74.8991 29.7004 73.7991 30.5004 71.5991 30.5004H67.7991V25.9004H71.5991ZM104.399 16.7004H97.5991V33.3004H101.199V28.6004H104.499C108.899 28.6004 111.599 26.3004 111.599 22.6004C111.599 18.9004 108.799 16.7004 104.399 16.7004ZM104.399 25.8004H101.199V19.4004H104.399C106.699 19.4004 107.999 20.5004 107.999 22.6004C107.899 24.7004 106.699 25.8004 104.399 25.8004ZM58.0991 29.7004C57.0991 30.2004 56.0991 30.5004 54.9991 30.5004C51.7991 30.5004 49.3991 28.2004 49.3991 25.0004C49.3991 21.8004 51.6991 19.5004 54.9991 19.5004C56.1991 19.5004 57.2991 19.9004 58.2991 20.5004L60.8991 18.6004L60.6991 18.4004C59.1991 17.1004 57.1991 16.4004 54.8991 16.4004C52.3991 16.4004 50.1991 17.2004 48.4991 18.8004C46.8991 20.4004 45.8991 22.6004 45.9991 24.9004C45.9991 27.2004 46.8991 29.4004 48.4991 31.1004C50.1991 32.7004 52.4991 33.6004 54.7991 33.5004C57.3991 33.5004 59.5991 32.6004 61.1991 31.0004L58.8991 29.3004L58.0991 29.7004ZM165.999 23.5004H158.299V16.7004H154.699V33.3004H158.299V26.5004H165.999V33.3004H169.599V16.7004H165.999V23.5004ZM141.699 16.7004L134.499 33.3004H138.099L139.499 30.0004H147.099L148.499 33.3004H152.299L145.299 16.7004H141.699ZM140.699 27.2004L143.499 20.5004L146.099 27.2004H140.699ZM182.599 24.7004L189.099 16.7004H184.999L179.599 23.8004H177.599V16.7004H173.999V33.3004H177.599V26.6004H179.899L185.399 33.3004H189.999L182.599 24.7004ZM126.999 23.2004H122.599V19.5004H131.999V16.7004H118.999V33.3004H126.499C130.699 33.3004 133.099 31.4004 133.099 28.1004C133.199 24.9004 130.999 23.2004 126.999 23.2004ZM126.399 30.6004H122.599V26.0004H126.399C128.699 26.0004 129.699 26.8004 129.699 28.3004C129.799 29.8004 128.599 30.6004 126.399 30.6004Z" fill="#D5EAFF"/>
<path d="M34.4808 16.3813C35.13 17.232 35.6796 18.1561 36.1184 19.1352L23.6695 28.4355L18.4668 25.1302V21.1538L23.6695 24.4591L34.4808 16.3813Z" fill="#D5EAFF"/>
<path d="M13.1573 24.8494C13.1573 24.6709 13.1616 24.4937 13.1702 24.3175L10.0172 24.1609C10.0064 24.3893 10 24.6199 10 24.8526C9.99866 26.671 10.3516 28.4716 11.0385 30.1514C11.7254 31.8312 12.7328 33.3569 14.003 34.6412L16.2395 32.3757C15.2618 31.3889 14.4862 30.2159 13.9572 28.9243C13.4283 27.6326 13.1564 26.2478 13.1573 24.8494Z" fill="#D5EAFF"/>
<path d="M23.666 14.1993C23.8419 14.1993 24.0168 14.2059 24.1907 14.2145L24.3484 11.018C24.1224 11.0072 23.8949 11.0017 23.666 11.0017C21.8709 10.9995 20.0932 11.3566 18.4348 12.0526C16.7763 12.7486 15.2699 13.7698 14.002 15.0575L16.2385 17.3241C17.2122 16.3329 18.3698 15.5466 19.6444 15.0103C20.9191 14.4741 22.2858 14.1984 23.666 14.1993Z" fill="#D5EAFF"/>
<path d="M23.666 35.5008C23.49 35.5008 23.3151 35.5008 23.1402 35.4867L22.9824 38.6821C23.2092 38.6937 23.4371 38.6995 23.666 38.6995C25.4603 38.7014 27.2372 38.344 28.8947 37.6478C30.5523 36.9516 32.0577 35.9303 33.3247 34.6427L31.0925 32.3772C30.1185 33.3678 28.9611 34.1537 27.6867 34.6898C26.4123 35.2258 25.0459 35.5015 23.666 35.5008Z" fill="#D5EAFF"/>
<path d="M29.5904 16.0575L32.2476 14.0725C29.8189 12.0794 26.7872 10.9945 23.6621 11V14.1987C25.7783 14.1961 27.8454 14.8442 29.5904 16.0575Z" fill="#D5EAFF"/>
<path d="M37.3332 24.8499C37.3349 24.0178 37.263 23.1871 37.1185 22.3679L34.1769 24.5649C34.1769 24.6596 34.1769 24.7542 34.1769 24.8499C34.1777 26.338 33.8699 27.8098 33.2735 29.1697C32.6771 30.5295 31.8053 31.7472 30.7148 32.7438L32.8365 35.1203C34.2543 33.8232 35.3872 32.2387 36.1618 30.4694C36.9365 28.7001 37.3355 26.7855 37.3332 24.8499Z" fill="#D5EAFF"/>
<path d="M23.6672 35.5014C22.1987 35.5019 20.7465 35.1898 19.4044 34.5854C18.0625 33.981 16.8607 33.0976 15.877 31.9927L13.5332 34.1418C14.8129 35.5788 16.3764 36.7272 18.1222 37.5125C19.868 38.2977 21.7572 38.7023 23.6672 38.7V35.5014Z" fill="#D5EAFF"/>
<path d="M16.6194 16.9558L14.4988 14.5793C13.0806 15.8762 11.9473 17.4607 11.1723 19.23C10.3973 20.9993 9.99789 22.9139 10 24.8497H13.1573C13.1566 23.3616 13.4645 21.8899 14.0609 20.53C14.6573 19.1702 15.529 17.9525 16.6194 16.9558Z" fill="#D5EAFF"/>
</svg>
