<svg width="200" height="50" viewBox="0 0 200 50" fill="none" xmlns="http://www.w3.org/2000/svg">
<path d="M161.779 25.079C161.779 20.637 158.418 17.044 153.671 17.044C149.018 17.044 145.704 20.499 145.704 25.246C145.704 30.017 149.111 33.496 154 33.496C157.102 33.496 159.71 32.109 161.332 29.288L158.042 27.76C157.267 29.17 155.574 30.087 154 30.087C152.003 30.087 149.7 28.583 149.558 26.492H161.661C161.739 26.025 161.778 25.553 161.779 25.079ZM149.628 23.721C149.911 21.606 151.367 20.22 153.694 20.22C155.997 20.22 157.407 21.578 157.595 23.721H149.628ZM116.475 17.041C111.704 17.041 108.32 20.473 108.32 25.315C108.32 30.109 111.704 33.494 116.522 33.494C121.363 33.494 124.747 30.109 124.747 25.386C124.748 20.52 121.27 17.041 116.475 17.041ZM116.523 29.897C114.125 29.897 112.645 28.111 112.645 25.338C112.645 22.518 114.149 20.591 116.523 20.591C118.92 20.591 120.424 22.494 120.424 25.338C120.424 28.135 118.943 29.897 116.523 29.897ZM99.4873 17.045C97.5333 17.045 96.0603 17.713 94.5883 19.368H94.1053C93.1163 17.873 91.5023 17.045 89.6923 17.045C87.8583 17.027 86.1273 17.891 85.0403 19.368H84.5573L84.5333 19.345V17.367H80.4883V33.147H84.8583V25.026C84.8583 22.404 85.9623 20.863 87.8723 20.863C89.6433 20.863 90.7933 22.175 90.7933 24.175V33.147H95.1863V25.026C95.1863 22.423 96.2903 20.863 98.2233 20.863C99.9703 20.863 101.097 22.175 101.097 24.199V33.147H105.491V23.669C105.491 19.553 103.282 17.045 99.4873 17.045ZM171.498 27.675H171.186C171.186 27.394 169.28 22.397 168.031 19.301L167.25 17.365H162.847L169.094 33.2L166.633 39.234H171.006L180 17.37H175.594L174.875 19.026L172.439 25.054C171.752 26.738 171.471 27.519 171.498 27.675ZM136.869 17.045C134.913 17.045 133.234 17.896 132.107 19.415H131.646L131.601 19.392V17.367H127.554V33.147H131.924V25.073C131.924 22.497 133.169 20.886 135.214 20.886C137.123 20.886 138.526 22.312 138.526 24.566V33.146H142.896V23.625C142.897 19.76 140.367 17.045 136.869 17.045Z" fill="#D5EAFF"/>
<path d="M50.805 8C41.362 8 33.775 15.639 33.775 24.975C33.775 34.388 41.437 41.95 50.803 41.95C60.169 41.95 67.838 34.311 67.838 24.975C67.838 15.639 60.171 8 50.805 8ZM50.805 31.302C47.322 31.302 44.459 28.447 44.459 24.975C44.459 21.503 47.322 18.648 50.805 18.648C54.288 18.648 57.152 21.503 57.152 24.975C57.074 28.447 54.288 31.302 50.805 31.302ZM33.775 12.932V37.623H27.741L20 12.932H33.775Z" fill="#D5EAFF"/>
</svg>
