<svg width="200" height="50" viewBox="0 0 200 50" fill="none" xmlns="http://www.w3.org/2000/svg">
<path d="M139.267 13.0503H131.108C130.551 13.0503 130.076 13.4562 129.989 14.0074L126.69 34.9276C126.625 35.3405 126.943 35.7138 127.361 35.7138H131.548C131.938 35.7138 132.271 35.43 132.331 35.0438L133.267 29.1131C133.354 28.562 133.829 28.1561 134.387 28.1561H136.969C142.342 28.1561 145.444 25.5552 146.255 20.4008C146.619 18.1464 146.269 16.375 145.214 15.1349C144.053 13.7712 141.997 13.0503 139.267 13.0503ZM140.209 20.6908C139.763 23.6195 137.527 23.6195 135.363 23.6195H134.132L134.996 18.1516C135.048 17.8208 135.333 17.5774 135.667 17.5774H136.232C137.704 17.5774 139.096 17.5774 139.812 18.4163C140.242 18.9187 140.371 19.6627 140.209 20.6908Z" fill="#D5EAFF"/>
<path d="M163.653 20.5974H159.747C159.412 20.5974 159.127 20.8409 159.075 21.1716L158.903 22.264L158.63 21.8683C157.783 20.6403 155.898 20.23 154.015 20.23C149.699 20.23 146.012 23.5008 145.295 28.088C144.921 30.3764 145.451 32.5637 146.749 34.0902C147.941 35.4927 149.642 36.0765 151.669 36.0765C155.148 36.0765 157.078 33.8412 157.078 33.8412L156.903 34.9273C156.838 35.3402 157.157 35.7138 157.575 35.7138H161.093C161.651 35.7138 162.126 35.3083 162.213 34.7575L164.325 21.3836C164.39 20.9703 164.071 20.5974 163.653 20.5974ZM158.209 28.2016C157.831 30.4336 156.06 31.9322 153.799 31.9322C152.666 31.9322 151.759 31.5678 151.176 30.8777C150.598 30.1938 150.38 29.2192 150.564 28.1338C150.916 25.9216 152.716 24.3746 154.942 24.3746C156.051 24.3746 156.952 24.7424 157.547 25.439C158.145 26.1405 158.38 27.1214 158.209 28.2016Z" fill="#D5EAFF"/>
<path d="M168.258 13.625L164.909 34.9281C164.844 35.3406 165.163 35.7139 165.581 35.7139H168.949C169.507 35.7139 169.981 35.3083 170.069 34.7572L173.37 13.8369C173.436 13.4241 173.117 13.0508 172.699 13.0508H168.93C168.595 13.0504 168.31 13.2943 168.258 13.625ZM52.4939 14.1465C52.9332 11.3458 52.491 9.44051 50.9762 7.71417C49.3085 5.81403 46.2959 5 42.4413 5H31.2524C30.4648 5 29.7938 5.57312 29.6713 6.35159L25.0119 35.8958C24.9202 36.4788 25.3709 37.0057 25.9605 37.0057H32.868L32.3913 40.029C32.311 40.5391 32.7048 41 33.2211 41H39.0437C39.7327 41 40.3193 40.4987 40.4268 39.8178L40.484 39.5215L41.5807 32.5663L41.6515 32.1821C41.7589 31.5015 42.3456 30.9995 43.0346 30.9995H43.9055C49.5461 30.9995 53.9628 28.7081 55.2532 22.0807C55.7925 19.3116 55.5135 17 54.0875 15.3749C53.6566 14.8843 53.1198 14.478 52.4939 14.1465Z" fill="#D5EAFF"/>
<path d="M52.4939 14.1465C52.9332 11.3458 52.4909 9.44051 50.9762 7.71417C49.3085 5.81403 46.2959 5 42.4413 5H31.2524C30.4648 5 29.7938 5.57312 29.6713 6.35159L25.0119 35.8958C24.9202 36.4788 25.3709 37.0057 25.9605 37.0057H32.868L34.6032 26.0027L34.5492 26.3478C34.6721 25.5697 35.3369 24.9962 36.1249 24.9962H39.4081C45.8559 24.9962 50.9047 22.3766 52.3795 14.801C52.4235 14.5773 52.4605 14.3599 52.4939 14.1465Z" fill="#D5EAFF"/>
<path d="M81.0765 13.0503H72.9179C72.3601 13.0503 71.8853 13.4562 71.798 14.0074L68.4986 34.9276C68.4337 35.3405 68.7527 35.7138 69.1708 35.7138H73.0664C73.6241 35.7138 74.0989 35.3082 74.1862 34.7571L75.0765 29.1131C75.1634 28.562 75.6383 28.1561 76.196 28.1561H78.7778C84.1519 28.1561 87.2533 25.5552 88.064 20.4008C88.4288 18.1464 88.0787 16.375 87.0233 15.1349C85.8624 13.7712 83.8057 13.0503 81.0765 13.0503ZM82.0182 20.6908C81.5723 23.6195 79.3355 23.6195 77.1725 23.6195H75.9415L76.8047 18.1516C76.8571 17.8208 77.1417 17.5774 77.4764 17.5774H78.0408C79.5134 17.5774 80.9045 17.5774 81.6214 18.4163C82.0504 18.9187 82.1802 19.6627 82.0182 20.6908ZM105.462 20.5973H101.556C101.221 20.5973 100.936 20.8408 100.884 21.1715L100.712 22.2639L100.439 21.8682C99.5924 20.6402 97.7069 20.2299 95.824 20.2299C91.5082 20.2299 87.8208 23.5007 87.1033 28.0879C86.7296 30.3763 87.2598 32.5636 88.5575 34.0901C89.7496 35.4926 91.451 36.0764 93.478 36.0764C96.9567 36.0764 98.8865 33.8411 98.8865 33.8411L98.712 34.9272C98.6464 35.3401 98.9654 35.7137 99.3838 35.7137H102.902C103.46 35.7137 103.934 35.3082 104.022 34.7574L106.134 21.3835C106.199 20.9702 105.88 20.5973 105.462 20.5973ZM100.018 28.2015C99.6401 30.4335 97.8679 31.9321 95.6077 31.9321C94.4746 31.9321 93.5675 31.5677 92.9844 30.8776C92.4066 30.1937 92.1891 29.2191 92.3725 28.1337C92.7241 25.9215 94.5249 24.3745 96.7506 24.3745C97.8598 24.3745 98.7608 24.7423 99.3552 25.4389C99.9536 26.1404 100.189 27.1213 100.018 28.2015Z" fill="#D5EAFF"/>
<path d="M126.27 20.5973H122.343C121.967 20.5973 121.616 20.784 121.405 21.0945L115.988 29.072L113.693 21.4058C113.549 20.9262 113.107 20.5969 112.607 20.5969H108.747C108.281 20.5969 107.953 21.0553 108.103 21.4968L112.427 34.1883L108.36 39.9262C108.041 40.3768 108.363 40.9998 108.915 40.9998H112.838C113.21 40.9998 113.558 40.8176 113.77 40.5118L126.829 21.6647C127.141 21.2141 126.818 20.5973 126.27 20.5973Z" fill="#D5EAFF"/>
<path d="M36.4674 14.1835C36.5411 13.7156 36.8417 13.3321 37.2462 13.1385C37.4299 13.0505 37.6356 13.0013 37.8508 13.0013H46.6215C47.6607 13.0013 48.6294 13.0695 49.515 13.2122C49.768 13.2529 50.0144 13.2998 50.2538 13.353C50.4929 13.4062 50.7254 13.4652 50.9502 13.5312C51.0627 13.5638 51.1731 13.5987 51.282 13.6346C51.7169 13.7791 52.1221 13.9492 52.4946 14.1469C52.9339 11.3461 52.4917 9.44087 50.9769 7.71454C49.3085 5.81403 46.2959 5 42.4413 5H31.2524C30.4648 5 29.7938 5.57312 29.6713 6.35159L25.0119 35.8958C24.9202 36.4788 25.3709 37.0057 25.9605 37.0057H32.868L34.6032 26.0027L36.4674 14.1835Z" fill="#D5EAFF"/>
</svg>
