<svg width="200" height="50" viewBox="0 0 200 50" fill="none" xmlns="http://www.w3.org/2000/svg">
<path d="M50 10.8833L56.055 21.7062V28.3079L50.0071 39.1095L50 10.8833Z" fill="#D5EAFF"/>
<path d="M73.248 17.7681L78.9218 14.2906L90.5334 14.2798L73.248 24.8689V17.7681Z" fill="#D5EAFF"/>
<path d="M73.2168 10.8196L73.2488 25.1487L67.1797 21.4196V0L73.2172 10.8196H73.2168Z" fill="#D5EAFF"/>
<path d="M90.5342 14.2796L78.9222 14.2904L73.2168 10.8196L67.1797 0L90.5338 14.2796H90.5342Z" fill="#D5EAFF"/>
<path d="M73.2488 39.1695V32.2174L67.1797 28.5591L67.183 49.9999L73.2488 39.1695Z" fill="#D5EAFF"/>
<path d="M78.9083 35.7237L56.0546 21.7062L50 10.8833L90.5095 35.7095L78.9079 35.7237H78.9083Z" fill="#D5EAFF"/>
<path d="M67.1836 50.0001L73.2486 39.1697L78.9082 35.7239L90.5094 35.7097L67.1836 50.0001Z" fill="#D5EAFF"/>
<path d="M50.0078 39.1093L67.2299 28.5593L61.4399 25.0068L56.0557 28.3077L50.0078 39.1093Z" fill="#D5EAFF"/>
<path fill-rule="evenodd" clip-rule="evenodd" d="M116.202 26.6996C120.109 26.6996 123.011 24.3038 123.011 20.6718C123.011 17.1562 120.87 14.8739 117.292 14.8739C115.641 14.8739 114.278 15.4549 113.252 16.4579C113.497 14.3852 115.25 12.8715 117.18 12.8715C117.625 12.8715 120.979 12.8646 120.979 12.8646L122.875 9.23584C122.875 9.23584 118.665 9.33187 116.708 9.33187C112.236 9.40959 109.216 13.4741 109.216 18.4106C109.216 24.1622 112.162 26.6996 116.202 26.6996ZM116.225 18.088C117.676 18.088 118.682 19.0413 118.682 20.6714C118.682 22.1383 117.788 23.3472 116.225 23.3504C114.73 23.3504 113.724 22.2302 113.724 20.6962C113.724 19.0657 114.73 18.088 116.225 18.088ZM138.099 14.0385V26.2626H133.734V17.6876H129.531V26.2626H125.166V14.0377L138.099 14.0385ZM103.092 22.8768C104.632 22.7645 105.663 22.17 105.663 22.17L107.278 25.1587C106.244 25.8231 104.546 26.2553 103.316 26.3008C98.9137 26.3818 95.8516 23.7032 95.8516 19.8006C95.8516 15.9473 99.1094 13.2047 103.316 13.2047C104.982 13.2047 106.415 13.6519 107.491 14.4674C107.265 14.8686 106.957 15.4244 106.664 15.9562L106.196 16.8099L105.77 17.5895C105.77 17.5895 104.219 16.7773 103.048 16.7773C101.137 16.7773 99.7454 17.8878 99.7454 19.825C99.7454 21.8115 101.322 22.9293 103.092 22.8768ZM99.7466 34.4893C99.6134 34.6594 99.438 34.788 99.2276 34.8746C99.0116 34.9625 98.7806 35.0073 98.5475 35.0061C98.3158 35.0093 98.0852 34.9707 97.8671 34.8921C97.6712 34.8209 97.4922 34.7099 97.3412 34.5662C97.1923 34.4222 97.0753 34.2484 96.998 34.056C96.9142 33.8456 96.8725 33.6206 96.8751 33.3939C96.8751 33.1689 96.9138 32.9606 96.9941 32.7632C97.0712 32.5655 97.1833 32.3958 97.3237 32.2534C97.3874 32.1875 97.4568 32.1285 97.5312 32.0756L97.5768 32.0447C97.6246 32.0133 97.6745 31.984 97.7262 31.9572L97.7817 31.9295L97.8218 31.9104C98.0146 31.827 98.225 31.7818 98.4563 31.7818C98.7054 31.7818 98.9367 31.8131 99.1471 31.8754C99.2799 31.9144 99.3999 31.9702 99.5074 32.0426C99.5704 32.0853 99.629 32.1338 99.6833 32.1879L99.4276 32.6212C99.3037 32.5089 99.158 32.4239 98.9995 32.371C98.849 32.3226 98.6915 32.2982 98.5334 32.2986C98.3933 32.2986 98.26 32.3262 98.1304 32.3783C98.0028 32.4296 97.8861 32.5049 97.7868 32.6005C97.6851 32.6981 97.6051 32.8165 97.5516 32.9472C97.4922 33.0818 97.4641 33.2312 97.4641 33.3976C97.4641 33.5673 97.4954 33.7199 97.5551 33.8517C97.6151 33.9868 97.6954 34.1015 97.7972 34.1984C97.8987 34.2956 98.0179 34.3681 98.1546 34.4169C98.2104 34.438 98.2673 34.4547 98.3255 34.4669C98.4104 34.4848 98.4982 34.4934 98.5896 34.4934C98.7788 34.4934 98.9509 34.4547 99.098 34.3819C99.1751 34.3445 99.2482 34.2997 99.3161 34.248C99.3763 34.202 99.4325 34.1508 99.4838 34.0946L99.7466 34.4893ZM100.469 34.9332V31.8477H101.023V34.1467L102.825 31.8477H103.379V34.9336H102.825V32.6351L101.023 34.9336L100.469 34.9332ZM107.05 34.4893C106.914 34.661 106.735 34.7937 106.531 34.8746C106.408 34.9247 106.279 34.9609 106.148 34.9825C106.05 34.9983 105.95 35.0065 105.851 35.0061C105.758 35.0073 105.665 35.002 105.573 34.9898C105.436 34.9719 105.301 34.9393 105.171 34.8921C105.126 34.8759 105.082 34.8576 105.039 34.8372C104.987 34.8124 104.937 34.7847 104.888 34.7546C104.801 34.7005 104.719 34.6374 104.645 34.5662C104.496 34.4222 104.379 34.2484 104.301 34.056C104.218 33.8456 104.176 33.6206 104.178 33.3939C104.178 33.1689 104.217 32.9606 104.298 32.7632C104.375 32.5655 104.487 32.3958 104.627 32.2534C104.768 32.1077 104.936 31.997 105.125 31.9104C105.325 31.8225 105.541 31.7785 105.76 31.7818C105.904 31.7818 106.043 31.7924 106.175 31.8135L106.253 31.827C106.282 31.8327 106.311 31.8392 106.34 31.8461L106.391 31.8587L106.451 31.8754C106.661 31.9376 106.84 32.0418 106.987 32.1879L106.731 32.6212C106.607 32.5089 106.462 32.4239 106.303 32.371C106.265 32.3588 106.227 32.3478 106.188 32.3384C106.161 32.3323 106.135 32.327 106.107 32.3222C106.082 32.3177 106.056 32.3136 106.031 32.3104L105.974 32.3043C105.929 32.3002 105.883 32.2982 105.837 32.2986C105.559 32.2994 105.291 32.4076 105.09 32.6005C105.064 32.6261 105.039 32.6526 105.016 32.6806C104.989 32.7136 104.963 32.7486 104.94 32.7848C104.907 32.8365 104.879 32.8906 104.855 32.9472C104.842 32.9765 104.831 33.0066 104.821 33.0375C104.809 33.0729 104.8 33.1091 104.792 33.1461C104.776 33.2255 104.768 33.3089 104.768 33.3976C104.768 33.4778 104.774 33.5538 104.788 33.6259C104.796 33.6686 104.807 33.7093 104.819 33.7488C104.831 33.7846 104.844 33.8187 104.859 33.8517C104.896 33.9371 104.942 34.0145 104.997 34.084C105.028 34.1247 105.063 34.1626 105.1 34.1984C105.202 34.2956 105.322 34.3681 105.458 34.4169C105.595 34.4653 105.739 34.4934 105.893 34.4934C105.958 34.4934 106.02 34.4889 106.08 34.48C106.195 34.4633 106.302 34.4299 106.401 34.3819C106.547 34.3115 106.678 34.2138 106.787 34.0946L107.05 34.4893ZM107.338 31.8477H110.178V32.3958H109.035V34.9332H108.481V32.3958H107.338V31.8477ZM113.309 34.5971C113.154 34.7355 112.976 34.8364 112.765 34.9023C112.562 34.9678 112.351 35.0016 112.138 35.0028C112.052 35.004 111.967 34.9996 111.882 34.9898C111.734 34.9723 111.588 34.9385 111.447 34.8885C111.24 34.8124 111.065 34.7046 110.921 34.5626C110.774 34.4185 110.659 34.2448 110.584 34.0531C110.507 33.8554 110.465 33.6336 110.465 33.3907C110.463 33.1754 110.5 32.9618 110.574 32.76C110.641 32.57 110.748 32.3966 110.886 32.2501C110.952 32.1822 111.024 32.1203 111.101 32.0658C111.19 32.0027 111.286 31.9494 111.387 31.9067C111.503 31.8587 111.628 31.8233 111.763 31.8021C111.862 31.7867 111.965 31.7785 112.074 31.7785C112.139 31.7781 112.203 31.7818 112.266 31.7895C112.324 31.7964 112.38 31.8066 112.437 31.8196C112.505 31.8359 112.573 31.8571 112.639 31.8827C112.811 31.9466 112.968 32.0442 113.102 32.1704C113.136 32.2033 113.168 32.2375 113.199 32.2737C113.224 32.3034 113.247 32.334 113.27 32.3657C113.304 32.4141 113.335 32.4654 113.363 32.5179C113.38 32.5504 113.396 32.5838 113.41 32.6176C113.442 32.6892 113.467 32.7636 113.486 32.8414C113.513 32.9516 113.526 33.0688 113.526 33.1933C113.526 33.3353 113.516 33.4566 113.491 33.564H111.093C111.117 33.8558 111.226 34.084 111.426 34.2472C111.626 34.4104 111.878 34.4897 112.183 34.4897C112.287 34.4897 112.387 34.4816 112.481 34.4653C112.571 34.4498 112.657 34.4271 112.737 34.3965C112.902 34.3339 113.039 34.2578 113.14 34.1675L113.309 34.5971ZM112.05 32.2953C111.762 32.2953 111.535 32.3714 111.363 32.5272C111.193 32.6806 111.085 32.8902 111.058 33.1168H112.951C112.937 32.8605 112.853 32.6595 112.695 32.5138C112.669 32.4894 112.641 32.4674 112.612 32.4475C112.584 32.4284 112.555 32.4113 112.525 32.3958C112.502 32.384 112.478 32.3734 112.453 32.3637C112.336 32.3181 112.201 32.2953 112.05 32.2953ZM114.28 31.8477H114.785L115.984 33.3768L117.12 31.8477H117.611V34.9336H117.057V32.6835L115.977 34.1154H115.956L114.834 32.6831V34.9332H114.28V31.8477ZM118.876 31.9409C118.955 31.9075 119.036 31.8799 119.118 31.8583C119.297 31.8099 119.483 31.7822 119.679 31.7822C119.871 31.7822 120.038 31.803 120.18 31.8445C120.275 31.8721 120.359 31.9092 120.432 31.9551C120.501 31.9987 120.56 32.0508 120.609 32.1114C120.687 32.207 120.747 32.3205 120.791 32.4516C120.847 32.6204 120.875 32.8182 120.875 33.0444V34.9373H120.356V34.5385C120.265 34.6565 120.139 34.7603 119.981 34.8506C119.823 34.9406 119.616 34.9857 119.357 34.9857C119.169 34.9857 119.005 34.9503 118.865 34.8795C118.835 34.8641 118.805 34.847 118.777 34.8283C118.758 34.8152 118.739 34.8014 118.721 34.7872C118.701 34.7713 118.681 34.7542 118.662 34.7363C118.487 34.5699 118.399 34.3339 118.399 34.0324C118.398 33.8871 118.429 33.7439 118.491 33.6124C118.548 33.4928 118.632 33.3874 118.736 33.3044C118.838 33.221 118.964 33.1583 119.111 33.1168C119.14 33.1087 119.17 33.101 119.199 33.094L119.244 33.0843L119.294 33.0753C119.385 33.0595 119.48 33.0509 119.578 33.0509C119.712 33.0525 119.846 33.0664 119.977 33.0928C120.113 33.1164 120.243 33.1697 120.356 33.2491C120.356 33.1876 120.355 33.1282 120.352 33.0709L120.346 32.9866C120.343 32.9411 120.338 32.8967 120.332 32.8536C120.314 32.7323 120.282 32.6286 120.233 32.5451C120.21 32.5061 120.182 32.4699 120.15 32.4381C120.135 32.4231 120.118 32.4088 120.101 32.3958C120.089 32.3873 120.077 32.3787 120.064 32.371C120.05 32.3624 120.035 32.3547 120.019 32.3474C119.925 32.299 119.802 32.2741 119.648 32.2741C119.455 32.2741 119.294 32.2953 119.167 32.3405L119.1 32.3653L119.043 32.3869L118.977 32.4141C118.914 32.4406 118.851 32.469 118.789 32.5L118.641 32.0626C118.717 32.0162 118.795 31.9755 118.876 31.9409ZM119.55 34.4897C119.753 34.4897 119.918 34.4486 120.044 34.3583C120.158 34.2826 120.262 34.1927 120.353 34.091V33.6991C120.291 33.6552 120.226 33.6185 120.157 33.5888C120.118 33.5722 120.078 33.5579 120.037 33.5461C120.008 33.538 119.979 33.5307 119.949 33.5241C119.914 33.5168 119.879 33.5111 119.844 33.5066C119.782 33.4989 119.718 33.4948 119.652 33.4948C119.567 33.4948 119.487 33.505 119.406 33.5258C119.366 33.5355 119.327 33.549 119.289 33.5661C119.256 33.5811 119.223 33.599 119.192 33.6198C119.133 33.6613 119.08 33.7134 119.041 33.7793L119.034 33.7935C119.028 33.8045 119.022 33.8155 119.018 33.8269C119.012 33.8395 119.008 33.8525 119.004 33.8659C119 33.8781 118.997 33.8908 118.995 33.9038C118.988 33.9351 118.985 33.9685 118.985 34.0043C118.985 34.15 119.034 34.268 119.133 34.3579C119.189 34.4079 119.26 34.4441 119.344 34.4657C119.405 34.4816 119.474 34.4897 119.55 34.4897ZM126.082 30.496C125.984 30.6242 125.879 30.7108 125.766 30.7625C125.654 30.8146 125.532 30.8496 125.398 30.8773C125.298 30.898 125.194 30.9171 125.084 30.9371L124.974 30.9574C124.808 30.9879 124.646 31.0404 124.494 31.1133C124.436 31.1381 124.38 31.1682 124.328 31.2028C124.29 31.2276 124.254 31.2545 124.22 31.2837L124.18 31.3208L124.155 31.3456L124.129 31.3729C124.11 31.3952 124.092 31.418 124.074 31.4412C124.039 31.4872 124.007 31.5348 123.978 31.5844C123.948 31.6345 123.922 31.6866 123.898 31.7407C123.838 31.8754 123.792 32.0182 123.761 32.1671C123.729 32.3165 123.712 32.4617 123.701 32.6037H123.715C123.764 32.4931 123.834 32.3958 123.919 32.3087C124.005 32.2208 124.102 32.1452 124.209 32.0837C124.233 32.0703 124.256 32.0573 124.28 32.0447C124.308 32.0308 124.335 32.0178 124.363 32.0056C124.427 31.9775 124.493 31.9539 124.56 31.9348C124.687 31.9002 124.816 31.8827 124.949 31.8827C125.08 31.8811 125.209 31.8953 125.335 31.925C125.409 31.9425 125.481 31.9653 125.552 31.9934C125.727 32.0626 125.883 32.1696 126.012 32.3059C126.14 32.445 126.238 32.609 126.299 32.7877C126.366 32.9752 126.401 33.1864 126.401 33.4183C126.401 33.6336 126.362 33.8379 126.282 34.0287C126.249 34.1109 126.209 34.1894 126.163 34.2635C126.102 34.3611 126.032 34.4507 125.952 34.5316C125.808 34.6781 125.636 34.7945 125.447 34.8746C125.251 34.9581 125.034 35.0032 124.799 35.0032C124.543 35.0032 124.315 34.9581 124.111 34.8681C123.908 34.7782 123.736 34.6529 123.592 34.4865C123.449 34.3233 123.34 34.1227 123.263 33.883C123.186 33.6438 123.147 33.3773 123.147 33.0822C123.147 32.8536 123.161 32.6147 123.189 32.3649C123.217 32.1199 123.272 31.8795 123.354 31.6471C123.435 31.418 123.554 31.2101 123.705 31.0266C123.856 30.8427 124.055 30.6974 124.304 30.5896L124.359 30.566C124.385 30.555 124.412 30.5444 124.439 30.5346C124.489 30.5167 124.538 30.5005 124.589 30.4858C124.619 30.4773 124.649 30.4691 124.679 30.4618C124.718 30.4524 124.756 30.4443 124.795 30.4374L124.987 30.4044L125.09 30.3865L125.195 30.3678C125.256 30.3572 125.317 30.343 125.377 30.3251C125.425 30.3113 125.471 30.2954 125.517 30.2775C125.543 30.2677 125.568 30.2551 125.592 30.2409L125.623 30.2205C125.679 30.181 125.732 30.1282 125.78 30.0626L126.082 30.496ZM123.74 33.1864C123.737 33.3695 123.763 33.5522 123.817 33.7272C123.863 33.8753 123.936 34.0136 124.031 34.1365C124.121 34.2464 124.235 34.3351 124.364 34.3965C124.494 34.4588 124.634 34.4901 124.788 34.4901C124.905 34.4901 125.012 34.4743 125.111 34.4421L125.148 34.4299C125.167 34.423 125.186 34.4153 125.206 34.4067C125.327 34.3554 125.436 34.2798 125.528 34.1854C125.62 34.0905 125.691 33.9782 125.739 33.8554C125.787 33.7308 125.816 33.5954 125.816 33.4464C125.816 33.1449 125.731 32.8951 125.559 32.6945C125.502 32.6277 125.436 32.5724 125.361 32.5281C125.3 32.4914 125.233 32.4625 125.16 32.441C125.057 32.4109 124.943 32.3958 124.816 32.3958C124.555 32.3938 124.3 32.4804 124.094 32.642C124.003 32.7152 123.926 32.7982 123.866 32.8918C123.845 32.9227 123.827 32.9549 123.81 32.9883C123.797 33.0151 123.785 33.0424 123.775 33.07C123.76 33.1079 123.749 33.1469 123.74 33.1864ZM130.097 31.8481H130.651V34.9341H130.097V31.8481ZM127.754 31.8481H127.2H127.197V34.9373H128.203C128.254 34.9373 128.302 34.9357 128.349 34.9328C128.378 34.9312 128.407 34.9288 128.435 34.9259C128.46 34.9235 128.485 34.9206 128.509 34.917C128.624 34.9007 128.728 34.8746 128.82 34.8405C128.859 34.8258 128.897 34.8104 128.932 34.7937L128.977 34.7709L129.013 34.7518C129.038 34.7371 129.063 34.7217 129.086 34.7054C129.1 34.6952 129.115 34.6846 129.129 34.674C129.145 34.6606 129.162 34.6468 129.177 34.6325C129.192 34.6191 129.206 34.6049 129.22 34.5906C129.318 34.4865 129.392 34.3721 129.434 34.2407C129.461 34.1626 129.479 34.0844 129.49 34.0051C129.497 33.9502 129.501 33.8944 129.501 33.8379C129.501 33.8082 129.5 33.7789 129.498 33.7496C129.496 33.7239 129.493 33.6987 129.49 33.6735C129.481 33.5937 129.464 33.516 129.441 33.4391C129.402 33.3113 129.336 33.197 129.241 33.0997C129.146 33.0025 129.02 32.9232 128.862 32.8637C128.704 32.8051 128.508 32.7738 128.266 32.7738H127.754V31.8481ZM128.158 34.4205H127.754V33.2902V33.2829H128.165C128.216 33.2829 128.265 33.2845 128.311 33.2881C128.382 33.2938 128.446 33.304 128.504 33.3183C128.547 33.3288 128.587 33.3423 128.623 33.3577C128.668 33.3777 128.707 33.4013 128.74 33.4289C128.777 33.4615 128.808 33.4985 128.834 33.5408C128.862 33.5872 128.882 33.6397 128.895 33.6979C128.906 33.7463 128.911 33.7988 128.911 33.8554C128.911 34.0393 128.856 34.1776 128.743 34.2749C128.694 34.3172 128.629 34.3506 128.548 34.3746C128.444 34.4051 128.314 34.4205 128.158 34.4205ZM134.315 34.4893C134.182 34.6594 134.006 34.788 133.796 34.8746C133.58 34.9621 133.349 35.0069 133.116 35.0061C132.884 35.0093 132.653 34.9707 132.435 34.8921C132.239 34.8209 132.06 34.7099 131.909 34.5662C131.852 34.5109 131.8 34.4511 131.752 34.3876L131.714 34.3335C131.7 34.3131 131.687 34.2924 131.674 34.2712L131.656 34.2415C131.645 34.2216 131.634 34.2012 131.623 34.1805C131.609 34.1532 131.596 34.1255 131.583 34.0971L131.566 34.056C131.482 33.8456 131.441 33.6206 131.443 33.3939C131.443 33.1689 131.482 32.9606 131.562 32.7632C131.639 32.5655 131.752 32.3958 131.892 32.2534C132.032 32.1077 132.2 31.997 132.39 31.9104C132.59 31.8225 132.806 31.7785 133.025 31.7818C133.273 31.7818 133.505 31.8131 133.715 31.8754C133.926 31.9376 134.104 32.0418 134.252 32.1879L133.996 32.6212C133.944 32.574 133.888 32.5317 133.829 32.4947C133.8 32.4764 133.77 32.4593 133.74 32.4434C133.715 32.4312 133.691 32.4198 133.666 32.4088L133.619 32.3897L133.568 32.371C133.417 32.3226 133.26 32.2982 133.102 32.2986C133.045 32.2986 132.99 32.303 132.935 32.3116C132.855 32.3246 132.776 32.3474 132.698 32.3783C132.571 32.4296 132.454 32.5053 132.355 32.6005C132.322 32.6322 132.292 32.666 132.264 32.7014L132.24 32.7335C132.192 32.7999 132.152 32.8715 132.12 32.9472C132.06 33.0818 132.032 33.2312 132.032 33.3976C132.032 33.5673 132.064 33.7199 132.123 33.8517C132.183 33.9868 132.264 34.1015 132.365 34.1984C132.467 34.2956 132.586 34.3681 132.723 34.4169C132.86 34.4653 133.004 34.4934 133.158 34.4934C133.272 34.4934 133.378 34.4795 133.477 34.4523C133.502 34.4454 133.527 34.4376 133.551 34.4291C133.591 34.4157 133.629 34.3998 133.666 34.3819C133.812 34.3115 133.943 34.2138 134.052 34.0946L134.315 34.4893ZM134.602 31.8477H137.443V32.3958H136.299V34.9332H135.745V32.3958H134.602V31.8477ZM138.045 31.8485H138.6V32.2123C138.705 32.087 138.855 31.9873 139.048 31.9039C139.241 31.8204 139.444 31.7789 139.662 31.7789C139.697 31.7781 139.732 31.7789 139.767 31.781C139.837 31.785 139.907 31.794 139.976 31.8078C140.074 31.8274 140.169 31.8571 140.261 31.8965C140.434 31.969 140.589 32.0792 140.714 32.2192C140.841 32.3628 140.938 32.5301 141.001 32.7112C141.034 32.8039 141.058 32.9012 141.076 33.0033C141.094 33.1115 141.103 33.2247 141.103 33.3427C141.103 33.5746 141.064 33.7935 140.987 33.9974C140.91 34.202 140.801 34.3754 140.657 34.5251C140.511 34.674 140.338 34.7929 140.146 34.8751C139.946 34.9581 139.725 35.0028 139.479 35.0028C139.314 35.0028 139.153 34.9857 138.999 34.9511C138.845 34.9166 138.712 34.8645 138.6 34.7916V36.3065H138.045V31.8485ZM139.501 32.2953C139.315 32.2953 139.143 32.3372 138.985 32.4206C138.828 32.5036 138.698 32.6041 138.6 32.7217V34.2509C138.725 34.3351 138.864 34.3986 139.01 34.4384C139.143 34.473 139.284 34.4901 139.434 34.4901C139.589 34.493 139.743 34.4633 139.887 34.4035C140.015 34.351 140.131 34.2716 140.227 34.1711C140.322 34.0694 140.395 33.9489 140.441 33.8175C140.49 33.6788 140.518 33.5298 140.518 33.3634C140.518 33.3284 140.517 33.2938 140.515 33.2601L140.51 33.2051L140.505 33.1661L140.499 33.1258L140.492 33.0871L140.482 33.042C140.474 33.0049 140.463 32.9687 140.451 32.9333C140.409 32.8019 140.342 32.6908 140.255 32.5936C140.167 32.4967 140.062 32.4239 139.936 32.3718C139.806 32.3197 139.662 32.2953 139.501 32.2953ZM144.798 31.8481H145.352V34.9336H144.798V31.8481ZM142.453 31.8481H141.899H141.895V34.9369H142.901C143.147 34.9369 143.35 34.9023 143.519 34.8405C143.687 34.7778 143.82 34.6948 143.918 34.5906C144.017 34.4865 144.09 34.3721 144.132 34.2403C144.178 34.1089 144.199 33.9766 144.199 33.8379C144.199 33.6991 144.178 33.5677 144.139 33.4391C144.101 33.3113 144.034 33.1966 143.939 33.0997C143.845 33.0025 143.719 32.9227 143.561 32.8637C143.403 32.8051 143.207 32.7738 142.965 32.7738H142.453V31.8481ZM142.86 34.4205H142.457V33.2902V33.2829H142.867C143.133 33.2829 143.326 33.3317 143.442 33.4289C143.554 33.5262 143.614 33.6678 143.614 33.8554C143.614 34.0393 143.557 34.1776 143.445 34.2745C143.333 34.3721 143.137 34.4205 142.86 34.4205ZM148.01 33.3353L149.195 34.9336H148.515L147.6 33.6853L146.671 34.9336H146.026L147.204 33.3626L146.096 31.8477H146.776L147.621 33.0127L148.48 31.8477H149.125L148.01 33.3353ZM99.3367 38.7471H97.6362V41.32H97.082V38.2344H99.8905V41.32H99.3367V38.7471ZM103.035 38.7817H101.942L101.906 39.3017C101.882 39.5788 101.852 39.8213 101.815 40.0305C101.793 40.1538 101.769 40.2657 101.742 40.3662C101.668 40.6368 101.577 40.8447 101.472 40.9904C101.367 41.136 101.244 41.2365 101.103 41.2854C100.958 41.3379 100.805 41.3635 100.651 41.3615L100.609 40.8272C100.669 40.8305 100.739 40.817 100.816 40.7824C100.893 40.7479 100.97 40.6714 101.044 40.5574C101.117 40.439 101.184 40.2726 101.244 40.0577C101.303 39.8392 101.342 39.5552 101.363 39.1976L101.419 38.2373H103.59V41.3232H103.035V38.7817ZM104.606 38.4456C104.743 38.3589 104.904 38.2898 105.083 38.2413C105.266 38.1909 105.454 38.1653 105.644 38.1653C106.086 38.1653 106.398 38.2755 106.573 38.4944C106.752 38.7129 106.84 39.025 106.84 39.427V41.32H106.321V40.9212C106.229 41.0392 106.103 41.1434 105.946 41.2333C105.788 41.3236 105.581 41.3688 105.322 41.3688C105.034 41.3688 104.802 41.2854 104.627 41.1189C104.531 41.0282 104.462 40.9163 104.418 40.7841C104.382 40.6746 104.364 40.5517 104.364 40.4154C104.364 40.3934 104.365 40.3715 104.366 40.3495C104.368 40.3011 104.375 40.2535 104.385 40.2067C104.4 40.1338 104.424 40.063 104.455 39.9955C104.513 39.8759 104.597 39.7705 104.701 39.6875C104.756 39.6419 104.818 39.6028 104.888 39.5699C104.946 39.5422 105.009 39.519 105.076 39.4999C105.223 39.458 105.378 39.434 105.542 39.434C105.677 39.4356 105.81 39.4494 105.942 39.4755C105.992 39.4844 106.042 39.4974 106.09 39.5141C106.172 39.5426 106.249 39.5821 106.321 39.6313C106.321 39.4893 106.314 39.3579 106.296 39.2362C106.287 39.1719 106.274 39.1125 106.256 39.0584C106.247 39.0307 106.236 39.0043 106.225 38.9795C106.217 38.9616 106.208 38.9441 106.198 38.9278C106.149 38.8444 106.079 38.7752 105.984 38.73C105.922 38.6987 105.849 38.6771 105.763 38.6661L105.72 38.6617C105.686 38.6588 105.65 38.6572 105.612 38.6572C105.42 38.6572 105.258 38.6784 105.132 38.7231C105.095 38.7361 105.059 38.75 105.022 38.7642C104.933 38.7992 104.843 38.8383 104.754 38.8826L104.606 38.4456ZM105.518 40.8728C105.645 40.8728 105.757 40.8565 105.854 40.8223C105.912 40.8016 105.965 40.7747 106.012 40.7405C106.126 40.6652 106.23 40.5753 106.321 40.4736V40.0818C106.128 39.9434 105.893 39.8779 105.62 39.8779C105.588 39.8779 105.556 39.8791 105.524 39.882C105.474 39.8868 105.424 39.8958 105.374 39.9084C105.293 39.9296 105.22 39.9605 105.161 40.0024C105.101 40.0439 105.048 40.096 105.01 40.1619C104.971 40.2278 104.954 40.3007 104.954 40.3873C104.954 40.5326 105.003 40.6506 105.101 40.7405C105.199 40.8276 105.336 40.8728 105.518 40.8728ZM107.387 38.2344H110.227V38.7821H109.083V41.32H108.53V38.7825H107.387V38.2344ZM113.065 41.1861C112.987 41.2268 112.903 41.261 112.814 41.2886C112.604 41.3545 112.394 41.3895 112.187 41.3895C111.951 41.3924 111.718 41.3537 111.496 41.2748C111.289 41.1987 111.114 41.0909 110.97 40.9489C110.826 40.8069 110.711 40.6368 110.633 40.4394C110.556 40.2413 110.514 40.0199 110.514 39.777C110.512 39.5617 110.549 39.3481 110.623 39.1459C110.654 39.0576 110.694 38.9729 110.742 38.8928C110.796 38.8008 110.861 38.7146 110.935 38.6364C111.077 38.4891 111.248 38.3724 111.437 38.293C111.636 38.2096 111.864 38.1648 112.124 38.1648C112.317 38.1636 112.508 38.199 112.688 38.269C112.86 38.3329 113.017 38.431 113.151 38.5567C113.283 38.6836 113.388 38.8358 113.46 39.0039C113.537 39.1772 113.575 39.368 113.575 39.5792C113.575 39.7216 113.565 39.8433 113.54 39.9503H111.142C111.167 40.2417 111.275 40.4708 111.475 40.6335C111.675 40.7963 111.927 40.876 112.232 40.876C112.436 40.876 112.622 40.8451 112.786 40.7828C112.951 40.7202 113.088 40.6441 113.19 40.5534L113.358 40.9834C113.269 41.0632 113.171 41.1307 113.065 41.1861ZM112.096 38.6779C111.808 38.6779 111.58 38.7544 111.409 38.9103C111.239 39.0633 111.13 39.2728 111.104 39.4999H112.997C112.983 39.2431 112.899 39.0421 112.741 38.8965C112.583 38.7544 112.369 38.6779 112.096 38.6779ZM114.547 38.2344H113.845L114.992 39.7216L113.793 41.32H114.473L115.616 39.7221L114.547 38.2344ZM116.307 38.2344H115.752V41.32H116.307V38.2344ZM117.067 39.7216L118.287 41.32H117.6L116.443 39.7216L117.519 38.234H118.207L117.067 39.7216ZM121.362 40.9834C121.208 41.1218 121.03 41.2227 120.819 41.2886C120.616 41.3537 120.405 41.3879 120.192 41.3895C119.956 41.3924 119.722 41.3537 119.501 41.2748C119.294 41.1987 119.119 41.0909 118.975 40.9489C118.831 40.8069 118.715 40.6368 118.638 40.4394C118.561 40.2413 118.519 40.0199 118.519 39.777C118.517 39.5617 118.554 39.3481 118.628 39.1459C118.695 38.9563 118.802 38.7825 118.94 38.6364C119.082 38.4891 119.253 38.3724 119.441 38.293C119.641 38.2096 119.869 38.1648 120.128 38.1648C120.321 38.1636 120.513 38.199 120.693 38.269C120.865 38.3329 121.022 38.431 121.156 38.5567C121.288 38.6836 121.392 38.8358 121.464 39.0039C121.542 39.1772 121.58 39.368 121.58 39.5792C121.58 39.7216 121.57 39.8433 121.545 39.9503H119.147C119.171 40.2417 119.28 40.4708 119.479 40.6335C119.679 40.7963 119.932 40.876 120.237 40.876C120.44 40.876 120.626 40.8451 120.791 40.7828C120.956 40.7202 121.092 40.6441 121.194 40.5534L121.362 40.9834ZM120.101 38.6779C119.813 38.6779 119.585 38.7544 119.413 38.9103C119.243 39.0633 119.135 39.2728 119.108 39.4999H121.002C120.988 39.2431 120.904 39.0421 120.746 38.8965C120.588 38.7544 120.371 38.6779 120.101 38.6779ZM123.443 37.056C123.533 37.1504 123.661 37.1976 123.828 37.1976C124.136 37.1976 124.308 37.0174 124.333 36.6569H124.852C124.852 36.7952 124.827 36.9201 124.778 37.0381C124.729 37.1561 124.659 37.2566 124.571 37.3397C124.532 37.3755 124.49 37.4088 124.445 37.4389C124.386 37.4788 124.321 37.513 124.249 37.5407C124.177 37.57 124.101 37.5903 124.02 37.6029C123.958 37.6123 123.893 37.6167 123.824 37.6167C123.758 37.6167 123.695 37.6131 123.635 37.6058C123.54 37.594 123.452 37.5728 123.372 37.5407C123.242 37.489 123.13 37.4231 123.042 37.3397C122.99 37.2896 122.944 37.2326 122.907 37.1696C122.882 37.1285 122.861 37.0845 122.843 37.0381C122.817 36.9726 122.798 36.9047 122.787 36.8335C122.777 36.7769 122.773 36.7183 122.773 36.6569H123.295C123.309 36.8331 123.358 36.9661 123.443 37.056ZM122.884 41.32H122.33V38.234H122.884V40.5326L124.687 38.234H125.241V41.32H124.687V39.021L122.884 41.32Z" fill="#D5EAFF"/>
</svg>
