<svg width="200" height="50" viewBox="0 0 200 50" fill="none" xmlns="http://www.w3.org/2000/svg">
<path d="M45 0L20 19V23.1L45 4.1L57.5 12.9V8.7L45 0Z" fill="#D5EAFF"/>
<path d="M20 25.2V29.2999L45 10.4L57.5 19.1V14.9L45 6.19995L20 25.2Z" fill="#D5EAFF"/>
<path d="M20 31.3999V35.5999L45 16.5999L57.5 25.2999V21.0999L45 12.3999L20 31.3999Z" fill="#D5EAFF"/>
<path d="M49.0004 27.3999H40.9004V35.4999H49.0004V27.3999Z" fill="#D5EAFF"/>
<path d="M115.7 20.5H115.5V18.3H112.2V20.5H111.9C110.7 20.5 109.5 20.8 108.4 21.4C107.4 22 106.6 22.8 106 23.8C105.4 24.9 105.1 26.1 105.1 27.3C105.1 28.5 105.4 29.7 106 30.8C106.6 31.8 107.4 32.6 108.4 33.2001C109.5 33.8001 110.7 34.1 111.9 34H112.1V36.1H115.4V34C116.3 34 117.3 33.9 118.2 33.6C119.1 33.3 119.9 32.8 120.6 32.1C121.2 31.5 121.7 30.7 122 29.9C122.3 29.1 122.5 28.2 122.4 27.3C122.4 26 122.1 24.8001 121.5 23.7001C120.9 22.7001 120.1 21.8 119.1 21.3C118.1 20.7 116.9 20.4 115.7 20.5ZM110.5 23.5C111 23.3 111.4 23.2 111.9 23.3H112.1V31.3H112C111.5 31.3 111 31.3 110.5 31.1C110 30.9001 109.6 30.6 109.3 30.3C108.6 29.5 108.3 28.5 108.3 27.5C108.2 26.4 108.6 25.3 109.3 24.5C109.7 24 110.1 23.7 110.5 23.5ZM115.5 31.2001V23.3H115.7C116.2 23.3 116.7 23.3 117.2 23.5C117.7 23.7 118.1 24 118.4 24.3C119.1 25.1 119.4 26.2 119.3 27.3C119.4 28.3 119 29.4001 118.3 30.2001C118 30.6 117.6 30.8 117.1 31C116.6 31.2 116.2 31.3001 115.7 31.2001H115.5ZM80.6 21.7001H73.3V24.9H76C77.6 24.8 79.3 25.3 80.6 26.3C81.2 26.8 81.6 27.3 81.9 28C82.2 28.7 82.3 29.4001 82.3 30.1C82.3 30.8 82.2 31.6 81.9 32.2001C81.6 32.9001 81.2 33.5001 80.6 33.9001C79.3 34.9001 77.7 35.4001 76.1 35.4001H70V19H80.8V21.7001H80.6ZM73.3 27.7001V32.8H76C76.8 32.8 77.5 32.6 78.1 32.1C78.4 31.9 78.6 31.6 78.7 31.2001C78.8 30.9001 78.9 30.5001 78.9 30.2001C78.9 29.9001 78.9 29.5001 78.7 29.2001C78.6 28.9001 78.4 28.6 78.1 28.4C77.5 27.9 76.8 27.7001 76.1 27.7001H73.3ZM98 28.8H96V35.5H92.6V28.8H90.6L87 35.5H82.8L87.9 26.7001L83.1 19H87.3L91 25.6H92.7V19H96V25.6H97.7L101.3 19H105.5L100.7 26.6L105.8 35.4001H101.5L98 28.8ZM139.7 21.7001H132.4V24.9H135C136.7 24.8 138.3 25.3 139.6 26.3C140.2 26.8 140.6 27.3 140.9 28C141.2 28.7 141.3 29.4001 141.3 30.1C141.3 30.8 141.2 31.6 140.9 32.2001C140.6 32.9001 140.2 33.5001 139.6 33.9001C138.3 34.9001 136.7 35.4001 135.1 35.4001H128.9V19H139.7V21.7001ZM132.3 27.7001V32.8H135C135.8 32.8 136.5 32.6 137.1 32.1C137.4 31.9 137.6 31.6 137.7 31.2001C137.8 30.9001 137.9 30.5001 137.9 30.2001C137.9 29.9001 137.9 29.5001 137.7 29.2001C137.6 28.9001 137.4 28.6 137.1 28.4C136.5 27.9 135.8 27.7001 135.1 27.7001H132.3ZM149.8 34.4001C149.9 34.8001 150 35.1 150.1 35.5H153.4V35.3C153 34.5 152.9 33.6 152.9 32.7001V27.4C152.9 26.8 152.8 26.2 152.6 25.6C152.4 25.0001 152 24.6001 151.6 24.2001C150.6 23.4001 149.3 23.0001 148 23.1C147.1 23.1 146.1 23.3 145.3 23.6C144.6 23.9001 143.9 24.4001 143.4 25.1C143 25.7 142.7 26.4001 142.7 27.1H146C146 26.9001 146 26.7 146.1 26.5C146.2 26.3 146.3 26.1 146.5 26C146.9 25.7 147.3 25.6 147.8 25.6C148.1 25.6 148.3 25.6001 148.5 25.7001C148.7 25.8001 149 25.9001 149.1 26.1C149.4 26.5 149.6 27 149.5 27.5V28H148C146.5 27.9 145.1 28.3 143.9 29C143.4 29.3 143 29.8 142.8 30.3C142.5 30.8 142.4 31.4 142.5 32C142.5 32.5 142.6 33.0001 142.8 33.4001C143 33.9001 143.3 34.3 143.7 34.6C144.5 35.3 145.6 35.7 146.7 35.6C147.3 35.6 147.9 35.5 148.4 35.3C148.9 35.2 149.4 34.8001 149.8 34.4001ZM148.8 32.9001C148.4 33.1001 147.9 33.2001 147.5 33.2001C147.1 33.2001 146.7 33.1 146.3 32.8C146.2 32.7 146 32.5 146 32.3C145.9 32.1 145.9 31.9 145.9 31.8V31.6C146 30.5 146.9 29.9 148.5 29.9H149.7V32C149.5 32.4 149.1 32.7001 148.8 32.9001ZM165.8 35.5H162.5V30.8H158.4V35.5H155.1V23.2001H158.4V28.1H162.5V23.2001H165.8V35.5ZM171.6 31H172.9L175.6 35.5H179.9L175.5 29.1L179.5 23.3H175.4L172.7 27.9H171.5V23.3H168.2V35.5H171.5L171.6 31Z" fill="#D5EAFF"/>
</svg>
