<svg width="200" height="50" viewBox="0 0 200 50" fill="none" xmlns="http://www.w3.org/2000/svg">
<path d="M0 43.1846H26.4121V50H0V43.1846ZM191.006 21.3058L199.333 9.87636H193.127L186.303 19.3758V9.87636H181.358V33.8963H186.327V23.7787L193.624 33.8963H200L191.006 21.3058ZM29.3212 22.889C29.1879 27.4125 28.7273 28.272 26.7152 28.272V33.9113H27.4667C32.5212 33.9113 33.7212 30.6695 33.903 23.4469L34.1212 15.4554H38.7879V33.8963H43.7333V9.87636H29.6606L29.3212 22.889ZM7.85455 27.0205H18.2788L20.0121 33.8963H25.7939L18 5.00603C17.2485 2.21653 16.3758 0 13.3939 0C10.4121 0 9.50303 2.21653 8.70303 5.00603L0.533334 33.8963H5.96364L7.85455 27.0205ZM13.1394 7.5392H13.2727L16.7636 21.2304H9.41818L13.1394 7.5392ZM128.667 13.2841H123.152V6.49879H135.952V0.467431H117.964V33.8963H128.667C134.594 33.8963 138 30.2171 138 23.4922C138 17.114 134.545 13.2841 128.667 13.2841ZM128.412 27.8498H123.152V19.1647H128.412C131.152 19.1647 132.691 20.6725 132.691 23.5072C132.691 26.342 131.152 27.8498 128.412 27.8498ZM79.503 9.31846V0.422195H74.5697V9.31846C71.9793 9.42476 69.5286 10.8056 67.7559 13.1577C65.9833 15.51 65.0335 18.6411 65.1152 21.8637C65.0269 25.0929 65.9733 28.2334 67.7464 30.5945C69.5194 32.9558 71.9738 34.3441 74.5697 34.4542V43.5012H79.5152V34.4542C80.801 34.4015 82.0659 34.0341 83.2373 33.3724C84.4089 32.7109 85.4639 31.7684 86.3422 30.5989C87.2204 29.4293 87.9045 28.0558 88.3554 26.5568C88.8063 25.0579 89.015 23.4631 88.9697 21.8637C89.0216 20.2633 88.8166 18.666 88.367 17.1653C87.9173 15.6644 87.2319 14.29 86.3507 13.1221C85.4695 11.9545 84.4101 11.0166 83.2344 10.3635C82.0587 9.71049 80.7903 9.35525 79.503 9.31846ZM74.5818 28.649C73.273 28.4701 72.0731 27.6585 71.241 26.3892C70.4087 25.1199 70.0109 23.4946 70.1333 21.8637C70.0267 20.2369 70.4302 18.6218 71.2595 17.3571C72.0887 16.0921 73.2794 15.2756 74.5818 15.0784V28.649ZM79.5273 28.649V15.0784C80.8297 15.2756 82.0204 16.0921 82.8496 17.3571C83.6789 18.6218 84.0824 20.2369 83.9758 21.8637C84.0918 23.4929 83.6916 25.114 82.8606 26.3816C82.0297 27.6491 80.8336 28.4628 79.5273 28.649ZM107.503 26.5229V18.4258C107.503 12.5151 104.485 8.82087 99.4182 8.82087C94.3515 8.82087 91.3939 12.7413 91.1515 16.8275H96.1576C96.3273 15.953 97.0788 14.3999 99.4061 14.3999C99.8412 14.3302 100.282 14.3872 100.696 14.5666C101.11 14.7461 101.485 15.0427 101.79 15.4334C102.096 15.8239 102.325 16.2976 102.458 16.8169C102.592 17.3364 102.625 17.8872 102.558 18.4258H97.7091C93.3212 18.4258 90.7151 21.3058 90.7151 26.0706C90.681 27.2076 90.839 28.3409 91.1792 29.3972C91.5194 30.4534 92.0341 31.4089 92.6899 32.202C93.3457 32.9952 94.1281 33.6081 94.9865 34.0014C95.8448 34.3945 96.76 34.559 97.6727 34.4843C98.7032 34.5517 99.7309 34.3022 100.665 33.7578C101.6 33.2134 102.412 32.391 103.03 31.3631C103.433 32.2097 104.019 32.897 104.724 33.3453C105.427 33.7937 106.218 33.9848 107.006 33.8963H108.715V28.3474C107.879 28.3474 107.503 27.8498 107.503 26.5229ZM102.558 25.0151C102.578 25.609 102.497 26.2016 102.319 26.7536C102.142 27.3056 101.873 27.8047 101.53 28.2179C101.185 28.631 100.776 28.9489 100.326 29.1506C99.8764 29.3522 99.3976 29.4331 98.9212 29.3878C97.1394 29.3878 95.7333 28.5887 95.7333 26.1912C95.7333 23.7937 97.297 23.4469 98.6182 23.4469H102.558V25.0151ZM56.0485 17.1743H52.497V9.87636H47.5515V33.8963H56.1333C61.503 33.8963 63.4061 29.5537 63.4061 25.4524C63.4303 20.1598 60.7636 17.1743 56.0485 17.1743ZM55.6848 28.649H52.497V22.6176H55.6848C57.3939 22.6176 58.4242 23.5826 58.4242 25.6333C58.4242 27.684 57.4424 28.649 55.6848 28.649ZM156.873 26.5229V18.4258C156.873 12.5151 153.855 8.82087 148.788 8.82087C143.721 8.82087 140.764 12.7413 140.521 16.8275H145.527C145.697 15.953 146.449 14.3999 148.776 14.3999C149.211 14.3302 149.652 14.3872 150.065 14.5666C150.48 14.7461 150.855 15.0427 151.16 15.4334C151.465 15.8239 151.695 16.2976 151.828 16.8169C151.961 17.3364 151.995 17.8872 151.927 18.4258H147.079C142.691 18.4258 140.085 21.3058 140.085 26.0706C140.051 27.2076 140.208 28.3409 140.549 29.3972C140.888 30.4534 141.404 31.4089 142.059 32.202C142.715 32.9952 143.498 33.6081 144.356 34.0014C145.215 34.3945 146.13 34.559 147.042 34.4843C148.082 34.5644 149.122 34.321 150.069 33.7762C151.015 33.2313 151.836 32.402 152.461 31.3631C152.857 32.195 153.433 32.8727 154.122 33.3203C154.812 33.7678 155.588 33.9673 156.364 33.8963H158.073V28.3474C157.212 28.3474 156.873 27.8498 156.873 26.5229ZM151.952 25.0151C151.97 25.6084 151.887 26.1998 151.709 26.7508C151.531 27.3017 151.262 27.7998 150.919 28.2125C150.576 28.625 150.166 28.943 149.718 29.1457C149.269 29.3482 148.792 29.4306 148.315 29.3878C146.533 29.3878 145.127 28.5887 145.127 26.1912C145.127 23.7937 146.691 23.4469 148.012 23.4469H151.952V25.0151ZM172.667 18.8179H165.842V9.87636H160.897V33.9113H165.842V24.4421H172.667V33.8963H177.612V9.87636H172.667V18.8179Z" fill="#D5EAFF"/>
</svg>
