<svg width="50" height="50" viewBox="0 0 50 50" fill="none" xmlns="http://www.w3.org/2000/svg">
<g clip-path="url(#clip0_365_926)">
<path d="M45.9748 28.2358C48.105 28.0683 49.8255 29.4914 49.9894 31.6678C50.1532 33.9279 48.5966 35.7695 46.4664 35.9369C44.4182 36.1044 42.6157 34.5139 42.4519 32.4212C42.288 30.1611 43.7627 28.4869 45.9748 28.2358Z" fill="#86DA2F"/>
<path d="M20.084 46.0657C20.084 43.8893 21.7226 42.2151 23.6889 42.2151C25.6552 42.2151 27.5396 44.0567 27.5396 46.1494C27.5396 48.1584 25.901 49.9163 24.0166 50C21.6406 50 20.084 48.4932 20.084 46.0657Z" fill="#24C2FF"/>
<path d="M25.9004 21.6228C25.5727 21.7902 25.4088 21.5391 25.3269 21.288C22.2955 15.5121 23.1967 8.22943 28.5222 3.87658C29.915 2.70466 32.5367 2.45353 33.6837 3.62545C34.1753 4.044 34.2572 4.54625 34.3392 5.13221C34.503 6.38784 34.7488 7.64347 35.5681 8.64797C36.4693 9.73618 37.6164 10.1547 38.9272 10.071C40.0742 10.071 41.2213 9.9036 41.9586 11.2429C42.3683 11.9963 42.2044 14.9261 41.549 15.5121C41.2213 15.7632 40.9755 15.5958 40.7297 15.5121C38.8453 14.7587 36.879 14.7587 34.9127 15.0935C34.2572 15.1772 33.9295 15.0098 33.9295 14.2564C33.8476 13.0008 33.6018 11.8289 32.9464 10.7407C31.7174 8.48055 29.4234 8.39684 27.9487 10.4896C26.7197 12.1637 26.392 14.1727 26.0643 16.1817C25.7366 17.9396 25.8185 19.7812 25.9004 21.6228Z" fill="#FFCB12"/>
<path d="M27.9485 22.8784C27.7847 22.6273 27.8666 22.3761 28.1124 22.2087C32.7824 17.8559 39.7464 17.0188 45.1537 21.2879C46.5466 22.4599 47.4478 24.8874 46.7104 26.3104C46.3827 26.8964 45.973 27.1475 45.4815 27.315C44.3345 27.8172 43.2694 28.3195 42.532 29.4077C41.7946 30.4959 41.6308 31.7515 41.9585 33.0908C42.2043 34.1791 42.6139 35.351 41.5488 36.3555C40.9753 36.9414 38.1897 37.4437 37.4524 36.9414C37.1246 36.6903 37.2066 36.4392 37.2885 36.1044C37.5343 34.0116 37.0427 32.0863 36.3054 30.2448C36.0596 29.5751 36.1415 29.2402 36.7969 29.0728C37.9439 28.738 39.009 28.152 39.8283 27.315C41.6308 25.5571 41.2211 23.2969 38.8452 22.2924C36.9608 21.4553 34.9945 21.6228 33.1101 21.7902C31.3076 21.8739 29.5871 22.3761 27.9485 22.8784Z" fill="#86DA2F"/>
<path d="M26.8841 25.055C27.1299 24.8039 27.2937 24.8876 27.5395 25.055C32.9469 28.4033 35.7325 35.0163 33.2746 41.4619C32.6192 43.136 30.489 44.8102 28.9323 44.3917C28.2769 44.2243 27.9492 43.8894 27.6215 43.4709C26.8841 42.4664 26.0648 41.5456 24.8359 41.127C23.525 40.7085 22.378 40.9596 21.2309 41.6293C20.2478 42.2152 19.2646 42.9686 18.0357 42.2152C17.2983 41.7967 16.0694 39.2017 16.3152 38.3646C16.479 38.0298 16.8067 38.0298 17.1345 38.0298C19.1827 37.695 20.8213 36.6905 22.378 35.3511C22.8695 34.9326 23.2792 34.9326 23.6888 35.5186C24.3443 36.5231 25.1636 37.3601 26.2287 37.9461C28.3588 39.2017 30.4071 38.1135 30.6529 35.6023C30.8986 33.5095 30.1613 31.668 29.5058 29.8264C28.7685 28.1522 27.8672 26.5617 26.8841 25.055Z" fill="#24C2FF"/>
<path d="M24.2639 25.5572C23.9362 27.2314 23.1988 28.8218 22.2157 30.2449C19.2662 34.7652 15.0059 36.6067 9.76239 36.1045C7.87801 35.9371 6.32135 34.3466 6.15749 32.7561C6.07556 32.0865 6.23942 31.5842 6.64907 31.082C7.22257 30.3286 7.71415 29.6589 7.95994 28.7381C8.45152 26.8965 7.79608 25.3898 6.48521 24.0504C4.68276 22.2089 4.92855 20.5347 7.05872 19.1953C7.3045 19.0279 7.63222 18.8605 7.95994 18.6931C8.45152 18.442 8.86117 18.442 9.02503 19.0279C9.76239 20.9532 11.2371 22.3763 12.8757 23.5482C13.4492 24.0504 13.4492 24.3853 12.9576 24.9712C11.9745 26.0595 11.401 27.3988 11.3191 28.9055C11.1552 30.7471 12.2203 31.9191 14.0227 31.9191C15.1697 31.9191 16.2348 31.5005 17.218 30.9983C19.7578 29.6589 21.7241 27.7336 23.6085 25.7246C23.8543 25.6409 23.9362 25.4735 24.2639 25.5572Z" fill="#0069DA"/>
<path d="M10.8253 7.97833C10.9892 7.97833 11.3988 8.06204 11.8085 8.14575C14.8399 8.73171 16.7242 7.64349 17.7074 4.71369C18.3628 2.78839 19.7556 2.20243 21.5581 3.20694C21.64 3.20694 21.64 3.29065 21.722 3.29065C23.6063 4.37886 23.6063 4.54628 22.4593 6.22045C21.4762 7.55979 20.9846 9.06654 20.7388 10.657C20.5749 11.5778 20.2472 11.7452 19.4279 11.4104C18.1171 10.9081 16.7242 10.9081 15.3314 11.4104C13.7748 11.9126 13.1193 13.3357 13.6109 14.9261C14.2664 17.0189 16.0688 17.9397 17.6255 19.0279C19.1821 20.1161 20.9846 20.702 22.7051 21.4554C22.9509 21.5391 23.3605 21.5391 23.2786 21.9577C23.1967 22.2088 22.869 22.2088 22.5412 22.2088C18.8544 22.3762 15.3314 21.7903 12.4639 19.279C9.76023 17.0189 7.79392 14.2565 8.12164 10.4059C8.36743 9.15025 9.26865 8.22946 10.8253 7.97833Z" fill="#FF4649"/>
<path d="M4.1078 31.5003C2.14149 31.7514 0.175182 30.0773 0.0113229 27.9845C-0.152536 25.9755 1.48606 23.9665 3.37044 23.7991C5.50061 23.548 7.46692 25.0547 7.63078 27.0637C7.71271 28.989 6.48376 31.3329 4.1078 31.5003Z" fill="#0069DA"/>
<path d="M38.5179 1.70003C40.5662 1.53261 42.5325 3.20678 42.6963 5.2995C42.8602 7.30851 41.2216 9.23381 39.2553 9.40122C37.1251 9.56864 35.2407 7.97818 35.0769 5.88546C34.913 3.79274 36.3877 1.86745 38.5179 1.70003Z" fill="#FFCB12"/>
<path d="M17.1334 3.29057C17.3792 5.467 15.9044 7.30859 13.6923 7.64342C11.8079 7.89455 9.84163 6.30408 9.59584 4.46249C9.35005 2.03494 10.6609 0.277064 12.873 0.0259379C14.9213 -0.225188 16.8876 1.36528 17.1334 3.29057Z" fill="#FF4649"/>
</g>
<defs>
<clipPath id="clip0_365_926">
<rect width="50" height="50" fill="white"/>
</clipPath>
</defs>
</svg>
