<svg width="50" height="50" viewBox="0 0 50 50" fill="none" xmlns="http://www.w3.org/2000/svg">
<g clip-path="url(#clip0_365_939)">
<path d="M21.0672 23.172L22.8697 24.9644L21.0672 26.7563H8.37988V32.7272L0.642578 24.9644L8.37988 17.3315V23.172H21.0672ZM26.6441 7.92432H42.06V23.3403H26.6441V7.92432Z" fill="#932279"/>
<path d="M26.8111 21.0665L25.0191 22.869L23.2271 21.0665V8.37915H17.2559L25.0191 0.641846L32.6514 8.37915H26.8111V21.0665ZM26.6432 26.6434H42.0588V42.0594H26.643L26.6432 26.6434Z" fill="#EFA724"/>
<path d="M28.9188 26.8116L27.116 25.0196L28.9188 23.2276H41.6059V17.2563L49.3436 25.0196L41.6059 32.6519V26.8116H28.9188ZM7.92578 26.6437H23.3416V42.0597H7.92578V26.6437Z" fill="#262577"/>
<path d="M23.1734 28.9173L24.9654 27.1145L26.7578 28.9173V41.6048H32.7287L24.9654 49.3421L17.3334 41.6048H23.1734V28.9173ZM7.92578 7.92432H23.3416V23.3403H7.92578V7.92432Z" fill="#9CCD2A"/>
<path d="M7.37305 7.37378H23.89V23.8908H7.37305V7.37378ZM8.47402 22.7898H22.7887V8.47515H8.47402V22.7898ZM26.0924 7.37378H42.6094V23.8908H26.0924V7.37378ZM27.1934 22.7898H41.508V8.47515H27.1934V22.7898ZM26.0924 26.0931H42.6094V42.6105H26.0924V26.0929V26.0931ZM27.1934 41.5087H41.508V27.1941H27.1934V41.5087ZM7.37305 26.0931H23.89V42.6105H7.37305V26.0929V26.0931ZM8.47402 41.5087H22.7887V27.1941H8.47402V41.5087Z" fill="white"/>
<path d="M11.7559 36.6714L0.0761719 24.9917L11.7557 13.3124L23.4354 24.9917L11.7559 36.6714ZM1.63359 24.9917L11.7559 35.114L21.8777 24.9917L11.7555 14.8698L1.63359 24.9917ZM24.9922 23.4347L13.3129 11.7554L24.9922 0.0756836L36.6715 11.7554L24.9922 23.4347ZM14.8703 11.7554L24.9922 21.8772L35.1145 11.7554L24.9922 1.63311L14.8703 11.7554ZM38.2289 36.6714L26.5496 24.9917L38.2289 13.3124L49.9082 24.9917L38.2289 36.6714ZM28.1066 24.9917L38.2289 35.114L48.3508 24.9917L38.2289 14.8698L28.1066 24.9917ZM24.9922 49.9077L13.3129 38.2284L24.9922 26.5491L36.6715 38.2284L24.9922 49.9077ZM14.8703 38.2284L24.9922 48.3503L35.1145 38.2284L24.9922 28.1065L14.8703 38.2284Z" fill="white"/>
</g>
<defs>
<clipPath id="clip0_365_939">
<rect width="50" height="50" fill="white"/>
</clipPath>
</defs>
</svg>
