<svg width="50" height="60" viewBox="0 0 50 60" fill="none" xmlns="http://www.w3.org/2000/svg">
<path d="M29.8635 31.7009C28.8312 31.7148 30.0588 32.2133 31.4064 32.413C31.7573 32.1493 32.0947 31.8694 32.4174 31.5742C31.5782 31.7723 30.724 31.7767 29.8635 31.7009ZM35.404 30.3709C36.0186 29.5537 36.4667 28.659 36.6246 27.7339C36.4868 28.3935 36.1151 28.9628 35.7653 29.5636C33.8357 30.7338 35.5838 28.8687 35.7641 28.16C33.6892 30.6752 35.4792 29.6682 35.404 30.3709ZM37.449 25.2453C37.5736 23.4549 37.0831 24.0209 36.9182 24.7042C37.1106 24.8005 37.2629 25.9662 37.449 25.2453ZM25.9492 0.773926C26.5001 0.869089 27.1395 0.942122 27.0498 1.06882C27.6524 0.941568 27.7892 0.824274 25.9492 0.773926ZM27.0498 1.06882L26.6604 1.14628L27.0229 1.1153L27.0498 1.06882Z" fill="#A80030"/>
<path d="M44.2281 25.9243C44.2896 27.5322 43.7398 28.3123 43.2441 29.6933L42.352 30.1226C41.6219 31.4881 42.4227 30.9896 41.8999 32.0757C40.7602 33.0516 38.4412 35.1297 37.699 35.3195C37.1573 35.3079 38.0661 34.7037 38.185 34.4669C36.6593 35.4761 36.9609 35.9818 34.6275 36.5948L34.5591 36.4488C28.8044 39.0563 20.8104 33.8888 20.9155 26.8378C20.8541 27.2854 20.7409 27.1736 20.6134 27.3546C20.3164 23.7267 22.3528 20.0829 25.7874 18.5951C29.1467 16.9934 33.0851 17.6507 35.4914 19.8106C34.1696 18.1431 31.5387 16.3754 28.4206 16.5408C25.3663 16.5873 22.5091 18.4568 21.5555 20.4862C19.9907 21.4351 19.8092 24.1439 19.1273 24.6396C18.2099 31.1334 20.8529 33.9391 25.3238 37.2394C26.0275 37.6964 25.522 37.7656 25.6174 38.1136C24.1318 37.4435 22.7716 36.4322 21.6531 35.1939C22.2465 36.0305 22.887 36.8438 23.7148 37.4828C22.3143 37.0258 20.4434 34.2141 19.8971 34.0995C22.3114 38.263 29.6924 41.4011 33.5573 39.8442C31.7691 39.9078 29.4971 39.8796 27.4877 39.1642C26.6439 38.746 25.4961 37.8795 25.7012 37.7174C30.9758 39.6152 36.4243 39.1548 40.9883 35.631C42.1492 34.7602 43.4176 33.2785 43.7841 33.258C43.232 34.0575 43.8783 33.6425 43.4543 34.3485C44.6113 32.5515 42.9517 33.6171 44.6503 31.2452L45.2776 32.0773C45.0444 30.5857 47.2009 28.7743 46.982 26.4151C47.4766 25.6936 47.534 27.1913 47.009 28.8512C47.7374 27.0099 47.2009 26.7139 47.3881 25.1946C47.5903 25.7052 47.8557 26.248 47.9919 26.7869C47.5174 25.0076 48.479 23.7904 48.7168 22.7563C48.4824 22.6561 47.9844 23.543 47.8707 21.4412C47.8873 20.5282 48.1343 20.9626 48.2297 20.7379C48.0436 20.635 47.5553 19.9351 47.2583 18.5929C47.4737 18.2775 47.8339 19.4106 48.1269 19.4571C47.9384 18.3898 47.6139 17.576 47.6007 16.7571C46.7448 15.0342 47.2979 16.9867 46.6034 16.0174C45.6924 13.2803 47.3594 15.3822 47.472 14.1385C48.853 16.0655 49.6405 19.0521 50.0018 20.2892C49.7261 18.781 49.2803 17.3198 48.7363 15.9062C49.1557 16.076 48.0608 12.8029 49.2815 14.9706C47.9775 10.3496 43.7008 6.03187 39.7664 4.00577C40.2478 4.43013 40.8556 4.96294 40.6373 5.04648C38.6807 3.92444 39.0248 3.83702 38.7445 3.36286C37.1504 2.73821 37.0459 3.41321 35.9901 3.36397C32.9857 1.82918 32.4067 1.9924 29.6419 1.03081L29.7677 1.59681C27.7773 0.958326 27.4487 1.83914 25.2974 1.59902C25.1664 1.50054 25.9867 1.24271 26.6617 1.1481C24.7373 1.39265 24.8275 0.782937 22.9445 1.2156C23.4086 0.901892 23.8992 0.694413 24.3944 0.427734C22.825 0.519578 20.6479 1.30744 21.32 0.590951C18.7602 1.69086 14.2141 3.23506 11.663 5.5389L11.5826 5.02269C10.4136 6.37434 6.48499 9.05939 6.17192 10.81L5.85943 10.8802C5.25109 11.8722 4.8576 12.9965 4.37507 14.0173C3.57947 15.323 3.20895 14.5197 3.32212 14.7244C1.75734 17.7801 0.980116 20.3479 0.308594 22.4536C0.787104 23.1425 0.320083 26.6004 0.501032 29.3679C-0.284805 43.0361 10.4607 56.3069 22.2063 59.371C23.9279 59.9641 26.4882 59.9414 28.6659 60.0023C26.0964 59.2946 25.7644 59.6271 23.2616 58.7867C21.4561 57.9679 21.0603 57.0328 19.7816 55.9639L20.2877 56.8254C17.7797 55.9705 18.8292 55.7675 16.7888 55.1451L17.3293 54.4651C16.5165 54.4059 15.1763 53.1455 14.8098 52.4478L13.9206 52.4816C12.8521 51.2118 12.2828 50.2967 12.3242 49.5879L12.037 50.0809C11.7113 49.5426 8.10607 45.3189 9.97645 46.302C9.62891 45.9961 9.16706 45.8041 8.66615 44.9277L9.047 44.5083C8.14685 43.3929 7.39031 41.9633 7.44776 41.4869C7.92799 42.1115 8.26117 42.2283 8.5909 42.3351C6.31783 36.903 6.1903 42.0357 4.4687 36.8056L4.8329 36.7774C4.55372 36.3724 4.38426 35.9326 4.15965 35.501L4.3182 33.9795C2.68161 32.157 3.86037 26.2303 4.09646 22.9798C4.26018 21.658 5.46249 20.2511 6.377 18.0446L5.81979 17.9522C6.8848 16.1629 11.9008 10.7662 14.2239 11.044C15.3492 9.68238 14.0004 11.039 13.7804 10.696C16.2522 8.23224 17.0294 8.95537 18.6976 8.5122C20.4968 7.48366 17.1535 8.91333 18.0066 8.11993C21.1166 7.35475 20.2107 6.38043 24.268 5.99203C24.6959 6.22662 23.2748 6.35442 22.9181 6.65873C25.5094 5.43765 31.1182 5.71539 34.7613 7.33649C38.9886 9.23921 43.7381 14.8638 43.9254 20.1559L44.1385 20.2112C44.0305 22.3148 44.4728 24.7475 43.7065 26.9822L44.2281 25.9243Z" fill="#A80030"/>
<path d="M18.5961 33.066L18.4514 33.7631C19.1298 34.6506 19.668 35.6122 20.5343 36.306C19.911 35.1341 19.448 34.65 18.5961 33.066ZM20.2 33.0051C19.8409 32.6228 19.6284 32.1625 19.3906 31.7038C19.6181 32.5099 20.0839 33.2026 20.5176 33.907L20.2 33.0051ZM48.5797 27.064L48.428 27.4303C48.1483 29.3562 47.5406 31.2244 46.6295 32.9597C47.6406 31.1227 48.3011 29.1258 48.5797 27.064ZM26.1529 0.297109C26.8509 0.0509014 27.8688 0.16211 28.6092 0C27.6442 0.0780119 26.6837 0.124487 25.7353 0.242335L26.1529 0.297109ZM1.65009 12.8465C1.81093 14.2806 0.529927 14.8372 1.93386 13.8916C2.68638 12.2589 1.63975 13.4407 1.65009 12.8465ZM0.00029188 19.4836C0.323703 18.5275 0.382296 17.9532 0.505801 17.4C-0.388031 18.5004 0.0945003 18.735 0.00029188 19.4836Z" fill="#A80030"/>
</svg>
