<svg width="50" height="50" viewBox="0 0 50 50" fill="none" xmlns="http://www.w3.org/2000/svg">
<g clip-path="url(#clip0_365_968)">
<path d="M49.36 1.01381C51.9983 3.69238 44.6844 15.4678 43.4479 16.7245C42.2116 17.9787 39.0711 16.8247 36.4342 14.1452C33.7959 11.4666 32.6594 8.27552 33.8959 7.01936C35.1317 5.76282 46.7223 -1.66635 49.36 1.01381ZM12.3643 3.84794C8.33656 1.52651 2.60531 -1.05603 0.782262 0.796348C-1.065 2.67214 1.57015 8.62532 3.87953 12.7243C5.93642 9.09422 8.85285 6.04318 12.3643 3.84794Z" fill="#B5010F"/>
<path d="M45.3357 15.8007C45.7066 17.0785 45.64 18.134 45.0385 18.7439C43.6336 20.1717 39.8385 18.6519 36.4174 15.3443C36.1751 15.1244 35.9388 14.8976 35.709 14.6642C34.4719 13.407 33.5094 12.0689 32.8937 10.8366C31.6955 8.65287 31.3957 6.7243 32.3014 5.80407C32.7949 5.30327 33.5846 5.16676 34.5479 5.34276C35.176 4.93918 35.9176 4.48958 36.7307 4.02907C33.4242 2.27708 29.665 1.2876 25.6773 1.2876C12.451 1.2876 1.72852 12.1785 1.72852 25.616C1.72852 39.0511 12.4512 49.9433 25.6773 49.9433C38.9039 49.9433 49.6258 39.0511 49.6258 25.616C49.6258 21.2767 48.5047 17.2078 46.5463 13.6803C46.123 14.465 45.7115 15.1838 45.3357 15.8007Z" fill="#B5010F"/>
</g>
<defs>
<clipPath id="clip0_365_968">
<rect width="50" height="50" fill="white"/>
</clipPath>
</defs>
</svg>
