<svg width="50" height="50" viewBox="0 0 50 50" fill="none" xmlns="http://www.w3.org/2000/svg">
<g clip-path="url(#clip0_365_955)">
<path d="M7.1036 30.957C11.0268 30.957 14.2072 27.6513 14.2072 23.5735C14.2072 19.4957 11.0268 16.1899 7.1036 16.1899C3.18039 16.1899 0 19.4957 0 23.5735C0 27.6513 3.18039 30.957 7.1036 30.957Z" fill="#E9500E"/>
<path d="M36.6876 14.767C40.6108 14.767 43.7912 11.4613 43.7912 7.38351C43.7912 3.30571 40.6108 0 36.6876 0C32.7644 0 29.584 3.30571 29.584 7.38351C29.584 11.4613 32.7644 14.767 36.6876 14.767Z" fill="#E9500E"/>
<path d="M23.1252 42.5759C20.6145 42.0241 18.2533 40.8986 16.2129 39.2811C14.1724 37.6635 12.5036 35.5944 11.3276 33.2236C9.42671 34.1206 7.30721 34.3914 5.25391 33.9996C6.6741 37.6495 8.93511 40.8809 11.8382 43.4099C14.7413 45.9388 18.1977 47.6878 21.9034 48.5032C23.5611 48.8724 25.2524 49.0533 26.9477 49.0427C25.6436 47.2655 24.9154 45.1042 24.8677 42.8696C24.2826 42.8019 23.701 42.7039 23.1252 42.5759Z" fill="#E9500E"/>
<path d="M35.086 49.9999C39.0092 49.9999 42.1896 46.6942 42.1896 42.6164C42.1896 38.5386 39.0092 35.2329 35.086 35.2329C31.1628 35.2329 27.9824 38.5386 27.9824 42.6164C27.9824 46.6942 31.1628 49.9999 35.086 49.9999Z" fill="#E9500E"/>
<path d="M44.9712 39.9044C48.0163 35.9115 49.7688 31.02 49.978 25.9294C50.1871 20.8388 48.8423 15.8098 46.1358 11.5616C45.3153 13.5697 43.9208 15.2672 42.1412 16.4242C43.5622 19.2127 44.2573 22.3388 44.1574 25.4926C44.0576 28.6463 43.1663 31.7182 41.572 34.4035C43.235 35.8186 44.4248 37.7439 44.9712 39.9044ZM6.55469 12.9849C6.73495 12.9746 6.91534 12.9695 7.09586 12.9696C8.99915 12.9711 10.8645 13.5232 12.483 14.5641C14.0489 12.2132 16.1309 10.2836 18.5567 8.9351C20.9826 7.58659 23.6825 6.85789 26.4331 6.80931C26.5479 4.63177 27.2998 2.54261 28.5881 0.821343C19.6552 0.086087 10.9753 4.87741 6.55469 12.9849Z" fill="#E9500E"/>
</g>
<defs>
<clipPath id="clip0_365_955">
<rect width="50" height="50" fill="white"/>
</clipPath>
</defs>
</svg>
