<svg width="35" height="35" viewBox="0 0 35 35" fill="none" xmlns="http://www.w3.org/2000/svg">
<mask id="path-1-inside-1_356_1050" fill="white">
<path fill-rule="evenodd" clip-rule="evenodd" d="M4 0C1.79086 0 0 1.79086 0 4V6.49986L32.0329 2.12393C32.5133 2.05831 32.9412 2.43171 32.9412 2.91657V4.94474C32.9412 5.27857 32.7339 5.57731 32.4212 5.69414L7.83206 14.8813L32.5468 25.5517C32.7935 25.6582 32.9702 25.8814 33.0173 26.1459L33.475 28.7158C33.4915 28.8087 33.4915 28.9037 33.475 28.9965L33.0418 31.4258C32.9816 31.7632 32.7133 32.0248 32.3745 32.0763L13.1499 35H31C33.2091 35 35 33.2091 35 31V4C35 1.79086 33.2091 0 31 0H4ZM0 28.8295C0 28.3763 0.376159 28.0135 0.829095 28.03L18.6317 28.6779C19.5378 28.7109 19.7912 27.4491 18.9426 27.1297L0 19.9999V28.8295Z"/>
</mask>
<g filter="url(#filter0_i_356_1050)">
<path fill-rule="evenodd" clip-rule="evenodd" d="M4 0C1.79086 0 0 1.79086 0 4V6.49986L32.0329 2.12393C32.5133 2.05831 32.9412 2.43171 32.9412 2.91657V4.94474C32.9412 5.27857 32.7339 5.57731 32.4212 5.69414L7.83206 14.8813L32.5468 25.5517C32.7935 25.6582 32.9702 25.8814 33.0173 26.1459L33.475 28.7158C33.4915 28.8087 33.4915 28.9037 33.475 28.9965L33.0418 31.4258C32.9816 31.7632 32.7133 32.0248 32.3745 32.0763L13.1499 35H31C33.2091 35 35 33.2091 35 31V4C35 1.79086 33.2091 0 31 0H4ZM0 28.8295C0 28.3763 0.376159 28.0135 0.829095 28.03L18.6317 28.6779C19.5378 28.7109 19.7912 27.4491 18.9426 27.1297L0 19.9999V28.8295Z" fill="url(#paint0_radial_356_1050)"/>
</g>
<path d="M3.5 16.4999L3.3816 16.5919L3.44926 16.6789L3.5525 16.6404L3.5 16.4999ZM7.83206 14.8813L7.88456 15.0218L8.23375 14.8913L7.89152 14.7436L7.83206 14.8813ZM0.168518 12.2165L0.0501153 12.3086H0.0501154L0.168518 12.2165ZM3.5525 16.6404L7.88456 15.0218L7.77956 14.7408L3.4475 16.3593L3.5525 16.6404ZM-0.0594565 11.6376L7.7726 15.019L7.89152 14.7436L0.0594565 11.3621L-0.0594565 11.6376ZM0.0501154 12.3086L3.3816 16.5919L3.6184 16.4078L0.286921 12.1244L0.0501154 12.3086ZM-0.15 11.7254C-0.15 11.9366 -0.0795838 12.1419 0.0501153 12.3086L0.286921 12.1244C0.198179 12.0103 0.15 11.8699 0.15 11.7254H-0.15ZM0 6.49986H-0.3V6.84363L0.040605 6.7971L0 6.49986ZM32.0329 2.12393L32.0735 2.42117L32.0329 2.12393ZM32.4212 5.69414L32.3162 5.41312L32.4212 5.69414ZM7.83206 14.8813L7.72706 14.6003L7.02867 14.8612L7.71315 15.1567L7.83206 14.8813ZM32.5468 25.5517L32.6657 25.2762L32.5468 25.5517ZM33.0173 26.1459L33.3127 26.0933L33.0173 26.1459ZM33.475 28.7158L33.1796 28.7684V28.7684L33.475 28.7158ZM33.475 28.9965L33.7703 29.0492V29.0492L33.475 28.9965ZM33.0418 31.4258L33.3371 31.4785L33.0418 31.4258ZM32.3745 32.0763L32.4196 32.3729H32.4196L32.3745 32.0763ZM13.1499 35L13.1048 34.7034L13.1499 35.3V35ZM0.829095 28.03L0.818184 28.3298H0.818185L0.829095 28.03ZM18.6317 28.6779L18.6208 28.9777L18.6317 28.6779ZM18.9426 27.1297L19.0483 26.849L18.9426 27.1297ZM0 19.9999L0.10568 19.7191L-0.3 19.5664V19.9999H0ZM0.3 4C0.3 1.95655 1.95655 0.3 4 0.3V-0.3C1.62518 -0.3 -0.3 1.62518 -0.3 4H0.3ZM0.3 6.49986V4H-0.3V6.49986H0.3ZM0.040605 6.7971L32.0735 2.42117L31.9923 1.82669L-0.040605 6.20262L0.040605 6.7971ZM32.0735 2.42117C32.3738 2.38016 32.6412 2.61353 32.6412 2.91657H33.2412C33.2412 2.24988 32.6528 1.73646 31.9923 1.82669L32.0735 2.42117ZM32.6412 2.91657V4.94474H33.2412V2.91657H32.6412ZM32.6412 4.94474C32.6412 5.15339 32.5116 5.34009 32.3162 5.41312L32.5262 5.97517C32.9562 5.81452 33.2412 5.40376 33.2412 4.94474H32.6412ZM32.3162 5.41312L7.72706 14.6003L7.93706 15.1623L32.5262 5.97517L32.3162 5.41312ZM7.71315 15.1567L32.4279 25.8271L32.6657 25.2762L7.95097 14.6059L7.71315 15.1567ZM32.4279 25.8271C32.5821 25.8937 32.6925 26.0332 32.722 26.1985L33.3127 26.0933C33.2479 25.7296 33.0049 25.4227 32.6657 25.2762L32.4279 25.8271ZM32.722 26.1985L33.1796 28.7684L33.7704 28.6632L33.3127 26.0933L32.722 26.1985ZM33.1796 28.7684C33.19 28.8264 33.19 28.8858 33.1796 28.9439L33.7703 29.0492C33.7931 28.9215 33.7931 28.7909 33.7704 28.6632L33.1796 28.7684ZM33.1796 28.9439L32.7465 31.3732L33.3371 31.4785L33.7703 29.0492L33.1796 28.9439ZM32.7465 31.3732C32.7089 31.584 32.5411 31.7475 32.3294 31.7797L32.4196 32.3729C32.8854 32.302 33.2544 31.9424 33.3371 31.4785L32.7465 31.3732ZM32.3294 31.7797L13.1048 34.7034L13.195 35.2966L32.4196 32.3729L32.3294 31.7797ZM31 34.7H13.1499V35.3H31V34.7ZM34.7 31C34.7 33.0435 33.0435 34.7 31 34.7V35.3C33.3748 35.3 35.3 33.3748 35.3 31H34.7ZM34.7 4V31H35.3V4H34.7ZM31 0.3C33.0435 0.3 34.7 1.95655 34.7 4H35.3C35.3 1.62518 33.3748 -0.3 31 -0.3V0.3ZM4 0.3H31V-0.3H4V0.3ZM0.3 28.8295C0.3 28.5462 0.5351 28.3195 0.818184 28.3298L0.840007 27.7302C0.217219 27.7076 -0.3 28.2063 -0.3 28.8295H0.3ZM0.818185 28.3298L18.6208 28.9777L18.6426 28.3781L0.840006 27.7302L0.818185 28.3298ZM18.6208 28.9777C19.8667 29.0231 20.2151 27.2881 19.0483 26.849L18.837 27.4105C19.3673 27.6101 19.2089 28.3987 18.6426 28.3781L18.6208 28.9777ZM19.0483 26.849L0.10568 19.7191L-0.10568 20.2806L18.837 27.4105L19.0483 26.849ZM0.3 28.8295V19.9999H-0.3V28.8295H0.3Z" fill="url(#paint1_linear_356_1050)" style="mix-blend-mode:overlay" mask="url(#path-1-inside-1_356_1050)"/>
<defs>
<filter id="filter0_i_356_1050" x="0" y="0" width="35" height="36" filterUnits="userSpaceOnUse" color-interpolation-filters="sRGB">
<feFlood flood-opacity="0" result="BackgroundImageFix"/>
<feBlend mode="normal" in="SourceGraphic" in2="BackgroundImageFix" result="shape"/>
<feColorMatrix in="SourceAlpha" type="matrix" values="0 0 0 0 0 0 0 0 0 0 0 0 0 0 0 0 0 0 127 0" result="hardAlpha"/>
<feOffset dy="1"/>
<feGaussianBlur stdDeviation="1"/>
<feComposite in2="hardAlpha" operator="arithmetic" k2="-1" k3="1"/>
<feColorMatrix type="matrix" values="0 0 0 0 1 0 0 0 0 1 0 0 0 0 1 0 0 0 0.32 0"/>
<feBlend mode="overlay" in2="shape" result="effect1_innerShadow_356_1050"/>
</filter>
<radialGradient id="paint0_radial_356_1050" cx="0" cy="0" r="1" gradientUnits="userSpaceOnUse" gradientTransform="translate(26.25 8.2353) rotate(111.991) scale(28.8649)">
<stop stop-color="#67CFFE"/>
<stop offset="1" stop-color="#28BCFF"/>
</radialGradient>
<linearGradient id="paint1_linear_356_1050" x1="17.5" y1="0" x2="17.5" y2="3" gradientUnits="userSpaceOnUse">
<stop stop-color="white" stop-opacity="0.48"/>
<stop offset="1" stop-color="white" stop-opacity="0"/>
</linearGradient>
</defs>
</svg>
