<svg width="157" height="39" viewBox="0 0 157 39" fill="none" xmlns="http://www.w3.org/2000/svg">
<path d="M46.9545 31V28.6591L59.1932 10.75H46.8523V7.72727H63.4886V10.0682L51.25 27.9773H63.5909V31H46.9545ZM67.9943 31V7.72727H82.5852V10.75H71.5057V17.8409H81.8239V20.8523H71.5057V27.9773H82.7216V31H67.9943ZM86.1278 10.75V7.72727H104.139V10.75H96.8778V31H93.3778V10.75H86.1278ZM108.119 31V7.72727H116.415C118.218 7.72727 119.714 8.03788 120.903 8.65909C122.1 9.2803 122.994 10.1402 123.585 11.2386C124.176 12.3295 124.472 13.5909 124.472 15.0227C124.472 16.447 124.172 17.7008 123.574 18.7841C122.983 19.8598 122.089 20.697 120.892 21.2955C119.703 21.8939 118.206 22.1932 116.403 22.1932H110.119V19.1705H116.085C117.222 19.1705 118.146 19.0076 118.858 18.6818C119.578 18.3561 120.104 17.8826 120.438 17.2614C120.771 16.6402 120.938 15.8939 120.938 15.0227C120.938 14.1439 120.767 13.3826 120.426 12.7386C120.093 12.0947 119.566 11.6023 118.847 11.2614C118.134 10.9129 117.199 10.7386 116.04 10.7386H111.631V31H108.119ZM119.608 20.5L125.358 31H121.358L115.722 20.5H119.608ZM132.256 7.72727V31H128.744V7.72727H132.256ZM139.812 7.72727L145.381 16.8295H145.562L151.131 7.72727H155.199L147.949 19.3636L155.244 31H151.153L145.562 22.0227H145.381L139.79 31H135.699L143.119 19.3636L135.744 7.72727H139.812Z" fill="#27314A"/>
<mask id="path-2-inside-1_359_1071" fill="white">
<path fill-rule="evenodd" clip-rule="evenodd" d="M4 2C1.79086 2 0 3.79086 0 6V8.49986L32.0329 4.12393C32.5133 4.05831 32.9412 4.43171 32.9412 4.91657V6.94474C32.9412 7.27857 32.7339 7.57731 32.4212 7.69414L7.83206 16.8813L32.5468 27.5517C32.7935 27.6582 32.9702 27.8814 33.0173 28.1459L33.475 30.7158C33.4915 30.8087 33.4915 30.9037 33.475 30.9965L33.0418 33.4258C32.9816 33.7632 32.7133 34.0248 32.3745 34.0763L13.1499 37H31C33.2091 37 35 35.2091 35 33V6C35 3.79086 33.2091 2 31 2H4ZM0 30.8295C0 30.3763 0.376159 30.0135 0.829095 30.03L18.6317 30.6779C19.5378 30.7109 19.7912 29.4491 18.9426 29.1297L0 21.9999V30.8295Z"/>
</mask>
<g filter="url(#filter0_i_359_1071)">
<path fill-rule="evenodd" clip-rule="evenodd" d="M4 2C1.79086 2 0 3.79086 0 6V8.49986L32.0329 4.12393C32.5133 4.05831 32.9412 4.43171 32.9412 4.91657V6.94474C32.9412 7.27857 32.7339 7.57731 32.4212 7.69414L7.83206 16.8813L32.5468 27.5517C32.7935 27.6582 32.9702 27.8814 33.0173 28.1459L33.475 30.7158C33.4915 30.8087 33.4915 30.9037 33.475 30.9965L33.0418 33.4258C32.9816 33.7632 32.7133 34.0248 32.3745 34.0763L13.1499 37H31C33.2091 37 35 35.2091 35 33V6C35 3.79086 33.2091 2 31 2H4ZM0 30.8295C0 30.3763 0.376159 30.0135 0.829095 30.03L18.6317 30.6779C19.5378 30.7109 19.7912 29.4491 18.9426 29.1297L0 21.9999V30.8295Z" fill="#27314A"/>
</g>
<path d="M3.5 18.4999L3.3816 18.5919L3.44926 18.6789L3.5525 18.6404L3.5 18.4999ZM7.83206 16.8813L7.88456 17.0218L8.23375 16.8913L7.89152 16.7436L7.83206 16.8813ZM0.168518 14.2165L0.0501153 14.3086H0.0501154L0.168518 14.2165ZM3.5525 18.6404L7.88456 17.0218L7.77956 16.7408L3.4475 18.3593L3.5525 18.6404ZM-0.0594565 13.6376L7.7726 17.019L7.89152 16.7436L0.0594565 13.3621L-0.0594565 13.6376ZM0.0501154 14.3086L3.3816 18.5919L3.6184 18.4078L0.286921 14.1244L0.0501154 14.3086ZM-0.15 13.7254C-0.15 13.9366 -0.0795838 14.1419 0.0501153 14.3086L0.286921 14.1244C0.198179 14.0103 0.15 13.8699 0.15 13.7254H-0.15ZM0 8.49986H-0.3V8.84363L0.040605 8.7971L0 8.49986ZM32.0329 4.12393L32.0735 4.42117L32.0329 4.12393ZM32.4212 7.69414L32.3162 7.41312L32.4212 7.69414ZM7.83206 16.8813L7.72706 16.6003L7.02867 16.8612L7.71315 17.1567L7.83206 16.8813ZM32.5468 27.5517L32.6657 27.2762L32.5468 27.5517ZM33.0173 28.1459L33.3127 28.0933L33.0173 28.1459ZM33.475 30.7158L33.1796 30.7684V30.7684L33.475 30.7158ZM33.475 30.9965L33.7703 31.0492V31.0492L33.475 30.9965ZM33.0418 33.4258L33.3371 33.4785L33.0418 33.4258ZM32.3745 34.0763L32.4196 34.3729H32.4196L32.3745 34.0763ZM13.1499 37L13.1048 36.7034L13.1499 37.3V37ZM0.829095 30.03L0.818184 30.3298H0.818185L0.829095 30.03ZM18.6317 30.6779L18.6208 30.9777L18.6317 30.6779ZM18.9426 29.1297L19.0483 28.849L18.9426 29.1297ZM0 21.9999L0.10568 21.7191L-0.3 21.5664V21.9999H0ZM0.3 6C0.3 3.95655 1.95655 2.3 4 2.3V1.7C1.62518 1.7 -0.3 3.62518 -0.3 6H0.3ZM0.3 8.49986V6H-0.3V8.49986H0.3ZM0.040605 8.7971L32.0735 4.42117L31.9923 3.82669L-0.040605 8.20262L0.040605 8.7971ZM32.0735 4.42117C32.3738 4.38016 32.6412 4.61353 32.6412 4.91657H33.2412C33.2412 4.24988 32.6528 3.73646 31.9923 3.82669L32.0735 4.42117ZM32.6412 4.91657V6.94474H33.2412V4.91657H32.6412ZM32.6412 6.94474C32.6412 7.15339 32.5116 7.34009 32.3162 7.41312L32.5262 7.97517C32.9562 7.81452 33.2412 7.40376 33.2412 6.94474H32.6412ZM32.3162 7.41312L7.72706 16.6003L7.93706 17.1623L32.5262 7.97517L32.3162 7.41312ZM7.71315 17.1567L32.4279 27.8271L32.6657 27.2762L7.95097 16.6059L7.71315 17.1567ZM32.4279 27.8271C32.5821 27.8937 32.6925 28.0332 32.722 28.1985L33.3127 28.0933C33.2479 27.7296 33.0049 27.4227 32.6657 27.2762L32.4279 27.8271ZM32.722 28.1985L33.1796 30.7684L33.7704 30.6632L33.3127 28.0933L32.722 28.1985ZM33.1796 30.7684C33.19 30.8264 33.19 30.8858 33.1796 30.9439L33.7703 31.0492C33.7931 30.9215 33.7931 30.7909 33.7704 30.6632L33.1796 30.7684ZM33.1796 30.9439L32.7465 33.3732L33.3371 33.4785L33.7703 31.0492L33.1796 30.9439ZM32.7465 33.3732C32.7089 33.584 32.5411 33.7475 32.3294 33.7797L32.4196 34.3729C32.8854 34.302 33.2544 33.9424 33.3371 33.4785L32.7465 33.3732ZM32.3294 33.7797L13.1048 36.7034L13.195 37.2966L32.4196 34.3729L32.3294 33.7797ZM31 36.7H13.1499V37.3H31V36.7ZM34.7 33C34.7 35.0435 33.0435 36.7 31 36.7V37.3C33.3748 37.3 35.3 35.3748 35.3 33H34.7ZM34.7 6V33H35.3V6H34.7ZM31 2.3C33.0435 2.3 34.7 3.95655 34.7 6H35.3C35.3 3.62518 33.3748 1.7 31 1.7V2.3ZM4 2.3H31V1.7H4V2.3ZM0.3 30.8295C0.3 30.5462 0.5351 30.3195 0.818184 30.3298L0.840007 29.7302C0.217219 29.7076 -0.3 30.2063 -0.3 30.8295H0.3ZM0.818185 30.3298L18.6208 30.9777L18.6426 30.3781L0.840006 29.7302L0.818185 30.3298ZM18.6208 30.9777C19.8667 31.0231 20.2151 29.2881 19.0483 28.849L18.837 29.4105C19.3673 29.6101 19.2089 30.3987 18.6426 30.3781L18.6208 30.9777ZM19.0483 28.849L0.10568 21.7191L-0.10568 22.2806L18.837 29.4105L19.0483 28.849ZM0.3 30.8295V21.9999H-0.3V30.8295H0.3Z" fill="url(#paint0_linear_359_1071)" style="mix-blend-mode:overlay" mask="url(#path-2-inside-1_359_1071)"/>
<defs>
<filter id="filter0_i_359_1071" x="0" y="2" width="35" height="36" filterUnits="userSpaceOnUse" color-interpolation-filters="sRGB">
<feFlood flood-opacity="0" result="BackgroundImageFix"/>
<feBlend mode="normal" in="SourceGraphic" in2="BackgroundImageFix" result="shape"/>
<feColorMatrix in="SourceAlpha" type="matrix" values="0 0 0 0 0 0 0 0 0 0 0 0 0 0 0 0 0 0 127 0" result="hardAlpha"/>
<feOffset dy="1"/>
<feGaussianBlur stdDeviation="1"/>
<feComposite in2="hardAlpha" operator="arithmetic" k2="-1" k3="1"/>
<feColorMatrix type="matrix" values="0 0 0 0 1 0 0 0 0 1 0 0 0 0 1 0 0 0 0.32 0"/>
<feBlend mode="overlay" in2="shape" result="effect1_innerShadow_359_1071"/>
</filter>
<linearGradient id="paint0_linear_359_1071" x1="17.5" y1="2" x2="17.5" y2="5" gradientUnits="userSpaceOnUse">
<stop stop-color="white" stop-opacity="0.48"/>
<stop offset="1" stop-color="white" stop-opacity="0"/>
</linearGradient>
</defs>
</svg>
