<svg width="183" height="40" viewBox="0 0 183 40" fill="none" xmlns="http://www.w3.org/2000/svg">
<mask id="path-1-inside-1_367_993" fill="white">
<path fill-rule="evenodd" clip-rule="evenodd" d="M4 2.5C1.79086 2.5 0 4.29086 0 6.5V8.99986L32.0329 4.62393C32.5133 4.55831 32.9412 4.93171 32.9412 5.41657V7.44474C32.9412 7.77857 32.7339 8.07731 32.4212 8.19414L7.83206 17.3813L32.5468 28.0517C32.7935 28.1582 32.9702 28.3814 33.0173 28.6459L33.475 31.2158C33.4915 31.3087 33.4915 31.4037 33.475 31.4965L33.0418 33.9258C32.9816 34.2632 32.7133 34.5248 32.3745 34.5763L13.1499 37.5H31C33.2091 37.5 35 35.7091 35 33.5V6.5C35 4.29086 33.2091 2.5 31 2.5H4ZM0 31.3295C0 30.8763 0.376159 30.5135 0.829095 30.53L18.6317 31.1779C19.5378 31.2109 19.7912 29.9491 18.9426 29.6297L0 22.4999V31.3295Z"/>
</mask>
<g filter="url(#filter0_i_367_993)">
<path fill-rule="evenodd" clip-rule="evenodd" d="M4 2.5C1.79086 2.5 0 4.29086 0 6.5V8.99986L32.0329 4.62393C32.5133 4.55831 32.9412 4.93171 32.9412 5.41657V7.44474C32.9412 7.77857 32.7339 8.07731 32.4212 8.19414L7.83206 17.3813L32.5468 28.0517C32.7935 28.1582 32.9702 28.3814 33.0173 28.6459L33.475 31.2158C33.4915 31.3087 33.4915 31.4037 33.475 31.4965L33.0418 33.9258C32.9816 34.2632 32.7133 34.5248 32.3745 34.5763L13.1499 37.5H31C33.2091 37.5 35 35.7091 35 33.5V6.5C35 4.29086 33.2091 2.5 31 2.5H4ZM0 31.3295C0 30.8763 0.376159 30.5135 0.829095 30.53L18.6317 31.1779C19.5378 31.2109 19.7912 29.9491 18.9426 29.6297L0 22.4999V31.3295Z" fill="url(#paint0_radial_367_993)"/>
</g>
<path d="M3.5 18.9999L3.3816 19.0919L3.44926 19.1789L3.5525 19.1404L3.5 18.9999ZM7.83206 17.3813L7.88456 17.5218L8.23375 17.3913L7.89152 17.2436L7.83206 17.3813ZM0.168518 14.7165L0.0501153 14.8086H0.0501154L0.168518 14.7165ZM3.5525 19.1404L7.88456 17.5218L7.77956 17.2408L3.4475 18.8593L3.5525 19.1404ZM-0.0594565 14.1376L7.7726 17.519L7.89152 17.2436L0.0594565 13.8621L-0.0594565 14.1376ZM0.0501154 14.8086L3.3816 19.0919L3.6184 18.9078L0.286921 14.6244L0.0501154 14.8086ZM-0.15 14.2254C-0.15 14.4366 -0.0795838 14.6419 0.0501153 14.8086L0.286921 14.6244C0.198179 14.5103 0.15 14.3699 0.15 14.2254H-0.15ZM0 8.99986H-0.3V9.34363L0.040605 9.2971L0 8.99986ZM32.0329 4.62393L32.0735 4.92117L32.0329 4.62393ZM32.4212 8.19414L32.3162 7.91312L32.4212 8.19414ZM7.83206 17.3813L7.72706 17.1003L7.02867 17.3612L7.71315 17.6567L7.83206 17.3813ZM32.5468 28.0517L32.6657 27.7762L32.5468 28.0517ZM33.0173 28.6459L33.3127 28.5933L33.0173 28.6459ZM33.475 31.2158L33.1796 31.2684V31.2684L33.475 31.2158ZM33.475 31.4965L33.7703 31.5492V31.5492L33.475 31.4965ZM33.0418 33.9258L33.3371 33.9785L33.0418 33.9258ZM32.3745 34.5763L32.4196 34.8729H32.4196L32.3745 34.5763ZM13.1499 37.5L13.1048 37.2034L13.1499 37.8V37.5ZM0.829095 30.53L0.818184 30.8298H0.818185L0.829095 30.53ZM18.6317 31.1779L18.6208 31.4777L18.6317 31.1779ZM18.9426 29.6297L19.0483 29.349L18.9426 29.6297ZM0 22.4999L0.10568 22.2191L-0.3 22.0664V22.4999H0ZM0.3 6.5C0.3 4.45655 1.95655 2.8 4 2.8V2.2C1.62518 2.2 -0.3 4.12518 -0.3 6.5H0.3ZM0.3 8.99986V6.5H-0.3V8.99986H0.3ZM0.040605 9.2971L32.0735 4.92117L31.9923 4.32669L-0.040605 8.70262L0.040605 9.2971ZM32.0735 4.92117C32.3738 4.88016 32.6412 5.11353 32.6412 5.41657H33.2412C33.2412 4.74988 32.6528 4.23646 31.9923 4.32669L32.0735 4.92117ZM32.6412 5.41657V7.44474H33.2412V5.41657H32.6412ZM32.6412 7.44474C32.6412 7.65339 32.5116 7.84009 32.3162 7.91312L32.5262 8.47517C32.9562 8.31452 33.2412 7.90376 33.2412 7.44474H32.6412ZM32.3162 7.91312L7.72706 17.1003L7.93706 17.6623L32.5262 8.47517L32.3162 7.91312ZM7.71315 17.6567L32.4279 28.3271L32.6657 27.7762L7.95097 17.1059L7.71315 17.6567ZM32.4279 28.3271C32.5821 28.3937 32.6925 28.5332 32.722 28.6985L33.3127 28.5933C33.2479 28.2296 33.0049 27.9227 32.6657 27.7762L32.4279 28.3271ZM32.722 28.6985L33.1796 31.2684L33.7704 31.1632L33.3127 28.5933L32.722 28.6985ZM33.1796 31.2684C33.19 31.3264 33.19 31.3858 33.1796 31.4439L33.7703 31.5492C33.7931 31.4215 33.7931 31.2909 33.7704 31.1632L33.1796 31.2684ZM33.1796 31.4439L32.7465 33.8732L33.3371 33.9785L33.7703 31.5492L33.1796 31.4439ZM32.7465 33.8732C32.7089 34.084 32.5411 34.2475 32.3294 34.2797L32.4196 34.8729C32.8854 34.802 33.2544 34.4424 33.3371 33.9785L32.7465 33.8732ZM32.3294 34.2797L13.1048 37.2034L13.195 37.7966L32.4196 34.8729L32.3294 34.2797ZM31 37.2H13.1499V37.8H31V37.2ZM34.7 33.5C34.7 35.5435 33.0435 37.2 31 37.2V37.8C33.3748 37.8 35.3 35.8748 35.3 33.5H34.7ZM34.7 6.5V33.5H35.3V6.5H34.7ZM31 2.8C33.0435 2.8 34.7 4.45655 34.7 6.5H35.3C35.3 4.12518 33.3748 2.2 31 2.2V2.8ZM4 2.8H31V2.2H4V2.8ZM0.3 31.3295C0.3 31.0462 0.5351 30.8195 0.818184 30.8298L0.840007 30.2302C0.217219 30.2076 -0.3 30.7063 -0.3 31.3295H0.3ZM0.818185 30.8298L18.6208 31.4777L18.6426 30.8781L0.840006 30.2302L0.818185 30.8298ZM18.6208 31.4777C19.8667 31.5231 20.2151 29.7881 19.0483 29.349L18.837 29.9105C19.3673 30.1101 19.2089 30.8987 18.6426 30.8781L18.6208 31.4777ZM19.0483 29.349L0.10568 22.2191L-0.10568 22.7806L18.837 29.9105L19.0483 29.349ZM0.3 31.3295V22.4999H-0.3V31.3295H0.3Z" fill="url(#paint1_linear_367_993)" style="mix-blend-mode:overlay" mask="url(#path-1-inside-1_367_993)"/>
<path d="M72.9545 31.5V29.1591L85.1932 11.25H72.8523V8.22727H89.4886V10.5682L77.25 28.4773H89.5909V31.5H72.9545ZM93.9943 31.5V8.22727H108.585V11.25H97.5057V18.3409H107.824V21.3523H97.5057V28.4773H108.722V31.5H93.9943ZM112.128 11.25V8.22727H130.139V11.25H122.878V31.5H119.378V11.25H112.128ZM134.119 31.5V8.22727H142.415C144.218 8.22727 145.714 8.53788 146.903 9.15909C148.1 9.7803 148.994 10.6402 149.585 11.7386C150.176 12.8295 150.472 14.0909 150.472 15.5227C150.472 16.947 150.172 18.2008 149.574 19.2841C148.983 20.3598 148.089 21.197 146.892 21.7955C145.703 22.3939 144.206 22.6932 142.403 22.6932H136.119V19.6705H142.085C143.222 19.6705 144.146 19.5076 144.858 19.1818C145.578 18.8561 146.104 18.3826 146.438 17.7614C146.771 17.1402 146.938 16.3939 146.938 15.5227C146.938 14.6439 146.767 13.8826 146.426 13.2386C146.093 12.5947 145.566 12.1023 144.847 11.7614C144.134 11.4129 143.199 11.2386 142.04 11.2386H137.631V31.5H134.119ZM145.608 21L151.358 31.5H147.358L141.722 21H145.608ZM158.256 8.22727V31.5H154.744V8.22727H158.256ZM165.812 8.22727L171.381 17.3295H171.562L177.131 8.22727H181.199L173.949 19.8636L181.244 31.5H177.153L171.562 22.5227H171.381L165.79 31.5H161.699L169.119 19.8636L161.744 8.22727H165.812Z" fill="#C8E4FF"/>
<defs>
<filter id="filter0_i_367_993" x="0" y="2.5" width="35" height="36" filterUnits="userSpaceOnUse" color-interpolation-filters="sRGB">
<feFlood flood-opacity="0" result="BackgroundImageFix"/>
<feBlend mode="normal" in="SourceGraphic" in2="BackgroundImageFix" result="shape"/>
<feColorMatrix in="SourceAlpha" type="matrix" values="0 0 0 0 0 0 0 0 0 0 0 0 0 0 0 0 0 0 127 0" result="hardAlpha"/>
<feOffset dy="1"/>
<feGaussianBlur stdDeviation="1"/>
<feComposite in2="hardAlpha" operator="arithmetic" k2="-1" k3="1"/>
<feColorMatrix type="matrix" values="0 0 0 0 1 0 0 0 0 1 0 0 0 0 1 0 0 0 0.32 0"/>
<feBlend mode="overlay" in2="shape" result="effect1_innerShadow_367_993"/>
</filter>
<radialGradient id="paint0_radial_367_993" cx="0" cy="0" r="1" gradientUnits="userSpaceOnUse" gradientTransform="translate(26.25 10.7353) rotate(111.991) scale(28.8649)">
<stop stop-color="#67CFFE"/>
<stop offset="1" stop-color="#28BCFF"/>
</radialGradient>
<linearGradient id="paint1_linear_367_993" x1="17.5" y1="2.5" x2="17.5" y2="5.5" gradientUnits="userSpaceOnUse">
<stop stop-color="white" stop-opacity="0.48"/>
<stop offset="1" stop-color="white" stop-opacity="0"/>
</linearGradient>
</defs>
</svg>
