                <svg width="22" height="22" viewBox="0 0 22 22" fill="none" xmlns="http://www.w3.org/2000/svg">
                    <path
                        d="M11.4193 6.94312H11.3448C10.6095 6.94407 9.88758 7.14004 9.25275 7.51108C8.61791 7.88211 8.09287 8.41492 7.73118 9.05511C7.60616 9.27692 7.57433 9.53927 7.64268 9.78454C7.71103 10.0298 7.87398 10.2379 8.0957 10.3631C8.31756 10.4883 8.58006 10.5202 8.82546 10.4518C9.07085 10.3835 9.27905 10.2204 9.40424 9.99859C9.59881 9.65447 9.88116 9.36812 10.2225 9.16873C10.5639 8.96933 10.952 8.86407 11.3473 8.86361H11.3858C11.6788 8.86862 11.968 8.93139 12.2368 9.04836C12.5055 9.16534 12.7485 9.33422 12.9519 9.54528C13.1553 9.75635 13.315 10.0054 13.4219 10.2783C13.5288 10.5512 13.5807 10.8426 13.5748 11.1356C13.5151 13.6337 12.9769 16.0972 11.9893 18.3926C11.9269 18.5386 11.9017 18.6979 11.9159 18.8561C11.9301 19.0143 11.9834 19.1665 12.0709 19.2991C12.1584 19.4317 12.2774 19.5405 12.4172 19.6158C12.5571 19.6911 12.7135 19.7306 12.8723 19.7306H12.9223C13.102 19.722 13.2756 19.6629 13.4232 19.56C13.5707 19.4571 13.6862 19.3147 13.7564 19.1491C14.8412 16.6232 15.4317 13.9128 15.4959 11.1646C15.5148 10.0645 15.096 9.00194 14.3316 8.21051C13.5673 7.41908 12.5199 6.96358 11.4198 6.94412L11.4193 6.94312Z"
                        fill="#B2BEE2" />
                    <path
                        d="M8.6284 12.0221C8.55679 11.9182 8.46531 11.8297 8.35922 11.7614C8.25314 11.6932 8.13458 11.6467 8.0104 11.6246C7.88625 11.602 7.75886 11.6042 7.63554 11.6309C7.51222 11.6576 7.39538 11.7084 7.29171 11.7804C7.18805 11.8523 7.09958 11.944 7.03139 12.0502C6.96321 12.1563 6.91666 12.2749 6.89436 12.3991C6.52799 14.4334 5.93458 16.4201 5.12529 18.3221C5.06233 18.4682 5.03664 18.6276 5.05055 18.786C5.06447 18.9445 5.11755 19.097 5.20501 19.2299C5.29247 19.3628 5.41156 19.4718 5.55161 19.5472C5.69165 19.6227 5.84824 19.6621 6.00731 19.6621H6.05733C6.23675 19.6536 6.41012 19.5946 6.55756 19.492C6.705 19.3894 6.82052 19.2474 6.89085 19.0821C7.75739 17.046 8.39303 14.9192 8.7859 12.7416C8.80864 12.6172 8.80644 12.4896 8.7794 12.366C8.75236 12.2425 8.70102 12.1256 8.6284 12.0221Z"
                        fill="#B2BEE2" />
                    <path
                        d="M11.6268 3.16138H11.4983C9.73966 3.17019 8.04166 3.805 6.7086 4.95202C5.37554 6.09904 4.49455 7.68332 4.22353 9.42088C4.2048 9.54561 4.21084 9.67278 4.24129 9.79518C4.27175 9.91757 4.326 10.0328 4.401 10.1342C4.47599 10.2356 4.57024 10.3212 4.67835 10.3862C4.78646 10.4512 4.90631 10.4942 5.03105 10.5129C5.07821 10.5201 5.12584 10.5236 5.17354 10.5234C5.40334 10.5224 5.62525 10.4395 5.79939 10.2895C5.97353 10.1396 6.08848 9.93246 6.12359 9.70537C6.32386 8.4216 6.97494 7.25118 7.96007 6.40398C8.9452 5.55679 10.1999 5.08826 11.4992 5.08239H11.5943C12.308 5.09483 13.0124 5.2477 13.6671 5.53234C14.3218 5.81698 14.914 6.22778 15.41 6.74129C15.9059 7.2548 16.2958 7.86096 16.5575 8.52516C16.8191 9.18936 16.9474 9.89861 16.9349 10.6124C16.9049 12.3694 16.6279 14.1135 16.1119 15.7934C16.068 15.937 16.0583 16.089 16.0838 16.2371C16.1092 16.3852 16.169 16.5252 16.2584 16.646C16.3478 16.7667 16.4642 16.8649 16.5984 16.9325C16.7325 17.0001 16.8807 17.0354 17.0309 17.0354H17.0809C17.2776 17.0246 17.4663 16.9539 17.6216 16.8327C17.7769 16.7114 17.8913 16.5456 17.9495 16.3574C18.5179 14.5056 18.8232 12.5831 18.8565 10.6464C18.8734 9.68044 18.6998 8.72064 18.3457 7.82179C17.9916 6.92295 17.4639 6.10265 16.7927 5.40777C16.1215 4.71289 15.32 4.15704 14.434 3.77194C13.548 3.38685 12.5947 3.18006 11.6288 3.16339L11.6268 3.16138Z"
                        fill="#B2BEE2" />
                    <path
                        d="M4.7277 11.8345C4.65716 11.8184 4.58505 11.8102 4.51269 11.8101C4.29507 11.8095 4.08376 11.8832 3.91374 12.019C3.74371 12.1549 3.62515 12.3447 3.57766 12.557C3.29749 13.7049 2.92852 14.8293 2.47411 15.92C2.41529 16.0658 2.39313 16.2237 2.40957 16.38C2.42601 16.5363 2.48055 16.6862 2.56842 16.8165C2.65628 16.9468 2.77478 17.0536 2.91352 17.1274C3.05226 17.2012 3.20699 17.2399 3.36416 17.24H3.41415C3.59689 17.2302 3.77306 17.1685 3.92207 17.0622C4.07108 16.956 4.18677 16.8096 4.25567 16.64C4.74843 15.4553 5.148 14.2339 5.45071 12.987C5.47892 12.8639 5.48258 12.7364 5.46151 12.6118C5.44044 12.4873 5.39504 12.3681 5.3279 12.261C5.26076 12.154 5.17322 12.0613 5.07024 11.9881C4.96725 11.9149 4.85085 11.8627 4.7277 11.8345Z"
                        fill="#B2BEE2" />
                    <path
                        d="M21.8857 9.71008C21.8559 9.47891 21.7431 9.26645 21.5683 9.11221C21.3936 8.95797 21.1687 8.87245 20.9357 8.87158C20.8944 8.87162 20.8531 8.87413 20.8122 8.87909C20.5595 8.91151 20.3301 9.04288 20.1743 9.24435C20.0184 9.44583 19.949 9.70092 19.9811 9.95358C20.1452 11.3114 20.1018 12.6863 19.8526 14.0311C19.8082 14.2818 19.8651 14.5399 20.0108 14.7487C20.1564 14.9576 20.379 15.1001 20.6297 15.1451C20.6856 15.155 20.7423 15.16 20.7992 15.1601H20.8491C21.066 15.1495 21.2728 15.0654 21.4355 14.9216C21.5982 14.7779 21.7071 14.583 21.7442 14.3691C22.0273 12.8322 22.075 11.2613 21.8857 9.71008Z"
                        fill="#B2BEE2" />
                    <path
                        d="M20.321 7.80301C20.473 7.79519 20.621 7.75138 20.7527 7.67515C20.8845 7.59892 20.9962 7.49246 21.0788 7.36457C21.1613 7.23668 21.2122 7.091 21.2274 6.93955C21.2426 6.78811 21.2215 6.63523 21.166 6.49351C20.6967 5.27406 19.9892 4.16026 19.085 3.21703C18.1253 2.21834 16.9772 1.41982 15.707 0.867638C14.4368 0.315455 13.0697 0.0205585 11.6847 2.59178e-05H11.4962C9.27148 -0.00492493 7.10309 0.699533 5.30604 2.01104C5.09998 2.16077 4.96184 2.3862 4.92199 2.63778C4.88214 2.88935 4.94384 3.14644 5.09353 3.35253C5.183 3.47484 5.29999 3.57437 5.43507 3.64308C5.57014 3.71179 5.71951 3.74775 5.87106 3.74803C6.07379 3.74841 6.27137 3.68413 6.43507 3.56453C7.90439 2.49233 9.67729 1.91644 11.4962 1.92052H11.6512C12.7842 1.93718 13.9027 2.17833 14.9419 2.63002C15.9811 3.08171 16.9203 3.73498 17.7054 4.55202C18.4332 5.3128 19.0021 6.21094 19.379 7.19401C19.4489 7.37424 19.5718 7.52908 19.7315 7.63807C19.8912 7.74705 20.0802 7.80507 20.2735 7.80451L20.321 7.80301Z"
                        fill="#B2BEE2" />
                    <path
                        d="M4.14492 5.76142C4.2203 5.65891 4.27457 5.54243 4.30456 5.41877C4.33455 5.29511 4.33966 5.16674 4.3196 5.04109C4.29955 4.91543 4.25472 4.795 4.18773 4.68681C4.12075 4.57862 4.03294 4.4848 3.92939 4.41084C3.82585 4.33687 3.70863 4.28424 3.58456 4.25596C3.4605 4.22768 3.33206 4.22433 3.20668 4.24611C3.08131 4.26788 2.96152 4.31436 2.85426 4.38282C2.747 4.45129 2.65441 4.54039 2.58188 4.64494C1.33645 6.38719 0.653394 8.46852 0.624296 10.6099C0.583879 11.6346 0.388654 12.6472 0.0452672 13.6134C-0.000570371 13.7574 -0.0117896 13.9102 0.0124903 14.0593C0.0367702 14.2085 0.0958699 14.3498 0.185012 14.4718C0.274153 14.5938 0.39083 14.6931 0.525538 14.7616C0.660245 14.8301 0.809191 14.8658 0.960305 14.8659H1.01032C1.20519 14.8553 1.39222 14.7858 1.54675 14.6666C1.70128 14.5474 1.81603 14.3842 1.87583 14.1984C2.28016 13.0436 2.50593 11.8338 2.54535 10.6109C2.57362 8.8695 3.13157 7.17796 4.14492 5.76142Z"
                        fill="#B2BEE2" />
                    <path
                        d="M12.0326 10.4675C11.9495 10.3727 11.8484 10.2953 11.735 10.2399C11.6217 10.1845 11.4985 10.1523 11.3726 10.145C11.3521 10.145 11.3316 10.145 11.3111 10.145C11.0672 10.1457 10.8326 10.239 10.6549 10.4061C10.4772 10.5732 10.3697 10.8016 10.3541 11.045C10.1746 13.934 9.23504 17.1555 7.56199 20.622C7.49153 20.7683 7.45929 20.93 7.46827 21.0921C7.47725 21.2543 7.52714 21.4115 7.61332 21.5491C7.6995 21.6867 7.81914 21.8002 7.96108 21.8791C8.10302 21.9579 8.26262 21.9995 8.42499 22H8.47501C8.6472 21.9911 8.81381 21.9361 8.95745 21.8408C9.1011 21.7454 9.21649 21.6132 9.29154 21.458C11.0731 17.7675 12.0761 14.3045 12.2711 11.166C12.2798 11.0396 12.2631 10.9127 12.2222 10.7928C12.1812 10.6728 12.1168 10.5623 12.0326 10.4675Z"
                        fill="#B2BEE2" />
                </svg>