<svg width="72" height="50" viewBox="0 0 72 50" fill="none" xmlns="http://www.w3.org/2000/svg">
<g clip-path="url(#clip0_433_243)">
<path d="M61.6663 17.8116C62.2928 15.0299 61.5159 11.747 57.6567 8.18848C51.3791 13.8709 53.1709 19.7788 55.2509 22.6231C55.2509 22.6231 54.9878 24.2269 48.8355 24.2269C42.6833 24.2269 0.720135 24.2269 0.720135 24.2269C0.720135 24.2269 -2.21816 49.8885 26.3817 49.8885C51.3917 49.8885 58.4147 30.6361 59.7868 25.7118C60.3569 25.7869 60.9897 25.837 61.6663 25.8308C65.1121 25.8057 69.5727 23.9513 71.2894 17.0347C66.7347 15.4559 63.8152 16.1701 61.6663 17.8116Z" fill="#03A9F4"/>
<path d="M0.992188 30.6345C2.17001 38.234 7.11938 49.8807 26.3906 49.8807C45.9312 49.8807 54.4955 38.1275 57.9601 30.6345H0.992188Z" fill="#0288D1"/>
<path d="M29.2955 49.7749C27.817 49.2611 21.1573 48.0269 19.9732 38.6482C13.2195 41.6366 7.24264 40.8535 4.61133 40.2646C8.07589 45.4457 14.5038 49.8751 26.3886 49.8751C27.3847 49.8751 28.3495 49.8375 29.2955 49.7749Z" fill="#81D4FA"/>
<path d="M29.5931 37.05C29.5931 38.823 28.1584 40.2577 26.3854 40.2577C24.6124 40.2577 23.1777 38.823 23.1777 37.05C23.1777 35.277 24.6124 33.8423 26.3854 33.8423C28.1584 33.8423 29.5931 35.277 29.5931 37.05Z" fill="white"/>
<path d="M21.427 39.6117C21.7841 40.4199 21.4583 41.4725 20.6063 41.7231C15.3123 43.283 10.7514 43.4898 7.29938 43.4898C6.27192 42.4999 5.38855 41.4411 4.64301 40.3447C8.79046 40.3447 15.4063 40.1505 19.3094 38.7973C20.1489 38.5028 21.0699 38.7973 21.427 39.6117ZM0.714844 29.0301C0.714844 29.0301 3.72206 29.2306 5.52638 27.4263C8.53359 30.1328 15.0555 29.1742 16.7533 27.4263C18.4574 30.1328 27.88 29.6316 29.5841 27.4263C31.5889 29.7318 40.2096 30.233 42.4148 27.4263C43.1854 29.7694 53.3536 30.4335 55.2456 27.4263C56.9497 29.1742 63.3651 30.5337 66.9737 27.4263C67.8759 29.3308 71.2841 29.0301 71.2841 29.0301V30.634H0.714844M24.7725 37.0493C24.7725 37.9327 25.493 38.6532 26.3764 38.6532C27.2597 38.6532 27.9802 37.9327 27.9802 37.0493C27.9802 36.166 27.2597 35.4455 26.3764 35.4455C25.493 35.4455 24.7725 36.166 24.7725 37.0493Z" fill="#37474F"/>
<path d="M15.156 24.2384H7.13672V16.2192H15.156V24.2384ZM31.1944 16.2192H23.1752V24.2384H31.1944V16.2192ZM47.2329 16.2192H39.2136V24.2384H47.2329V16.2192ZM23.1752 8.19995H15.156V16.2192H23.1752V8.19995ZM39.2136 8.19995H31.1944V16.2192H39.2136V8.19995Z" fill="#01579B"/>
<path d="M23.1755 24.2403H15.1562V16.2211H23.1755V24.2403ZM39.2139 16.2211H31.1947V24.2403H39.2139V16.2211ZM39.2139 0.182617H31.1947V8.20185H39.2139V0.182617ZM31.1947 8.20185H23.1755V16.2211H31.1947V8.20185Z" fill="#0288D1"/>
</g>
<defs>
<clipPath id="clip0_433_243">
<rect width="70.7692" height="50" fill="white" transform="translate(0.615234)"/>
</clipPath>
</defs>
</svg>
