<svg width="50" height="50" viewBox="0 0 50 50" fill="none" xmlns="http://www.w3.org/2000/svg">
<g clip-path="url(#clip0_433_258)">
<path d="M25 50C38.8071 50 50 38.8071 50 25C50 11.1929 38.8071 0 25 0C11.1929 0 0 11.1929 0 25C0 38.8071 11.1929 50 25 50Z" fill="url(#paint0_linear_433_258)"/>
<path d="M21.6344 27.1658L19.9303 35.2089C19.8888 35.4066 19.7146 35.5469 19.5131 35.5469H15.4923C15.2223 35.5469 15.0193 35.2972 15.0759 35.0331L18.1832 20.4127C18.2156 20.2625 18.3484 20.1547 18.5023 20.1547H22.7275C22.935 20.1547 23.0889 20.3463 23.0459 20.5485L22.382 23.6444H29.802C30.0728 23.6444 30.275 23.8941 30.2184 24.1596L29.6511 26.8286C29.6097 27.0247 29.4361 27.1658 29.2347 27.1658H21.6344ZM18.6328 18.2046L19.3509 14.7918C19.3924 14.5942 19.5667 14.4531 19.7681 14.4531H34.507C34.7779 14.4531 34.98 14.7021 34.9242 14.9669L34.2309 18.2589C34.1902 18.4558 34.0159 18.5976 33.8145 18.5976H18.9511C18.7444 18.5976 18.5898 18.4068 18.6328 18.2046Z" fill="white"/>
</g>
<defs>
<linearGradient id="paint0_linear_433_258" x1="7.32233" y1="42.6777" x2="42.6777" y2="7.32233" gradientUnits="userSpaceOnUse">
<stop offset="4e-07" stop-color="#15B4FC"/>
<stop offset="1" stop-color="#04175E"/>
</linearGradient>
<clipPath id="clip0_433_258">
<rect width="50" height="50" fill="white"/>
</clipPath>
</defs>
</svg>
