<svg width="50" height="50" viewBox="0 0 50 50" fill="none" xmlns="http://www.w3.org/2000/svg">
<g clip-path="url(#clip0_433_224)">
<path d="M49.69 28.6741L46.9071 19.4054L41.3925 1.0396C41.3303 0.833895 41.2097 0.654733 41.0478 0.527703C40.8859 0.400674 40.691 0.332275 40.4911 0.332275C40.2911 0.332275 40.0963 0.400674 39.9344 0.527703C39.7725 0.654733 39.6518 0.833895 39.5896 1.0396L34.0767 19.4036H15.76L10.252 1.0396C10.1898 0.833895 10.0691 0.654733 9.90725 0.527703C9.74535 0.400674 9.55052 0.332275 9.35057 0.332275C9.15063 0.332275 8.9558 0.400674 8.7939 0.527703C8.63201 0.654733 8.51133 0.833895 8.44911 1.0396L2.93623 19.4036L0.155 28.6724C0.0315104 29.0844 0.0316706 29.5283 0.155458 29.9403C0.279245 30.3523 0.520307 30.7113 0.84411 30.9658L24.9217 49.9077L49.0009 30.9676C49.3247 30.713 49.5657 30.354 49.6895 29.9421C49.8133 29.5301 49.8135 29.0862 49.69 28.6741Z" fill="#FC6D26"/>
<path d="M24.9215 49.9942L34.0765 19.4919H15.7598L24.9149 49.9942H24.9215Z" fill="#E24329"/>
<path d="M24.8233 49.9897L15.6616 19.4856H2.83789L24.8167 49.9879L24.8233 49.9897Z" fill="#FC6D26"/>
<path d="M2.82655 19.4856L0.0436721 28.7544C-0.0798177 29.1664 -0.0796576 29.6103 0.0441298 30.0223C0.167917 30.4343 0.40898 30.7933 0.732783 31.0478L24.812 49.9897L2.83316 19.4874L2.82655 19.4856Z" fill="#FCA326"/>
<path d="M2.79883 19.2665H15.6226L10.1146 0.902497C10.0533 0.695893 9.93293 0.515701 9.77093 0.387869C9.60893 0.260037 9.41364 0.191162 9.21317 0.191162C9.0127 0.191162 8.81741 0.260037 8.65541 0.387869C8.49341 0.515701 8.37307 0.695893 8.31171 0.902497L2.79883 19.2665Z" fill="#E24329"/>
<path d="M25.0195 49.9942L34.1746 19.4919H47.005L25.0261 49.9942H25.0195Z" fill="#FC6D26"/>
<path d="M47.0167 19.4856L49.7996 28.7544C49.923 29.1664 49.9229 29.6103 49.7991 30.0223C49.6753 30.4343 49.4342 30.7933 49.1104 31.0478L25.0312 49.9897L47.0101 19.4874L47.0167 19.4856Z" fill="#FCA326"/>
<path d="M47.0471 19.2675H34.2168L39.7313 0.903474C39.7927 0.69687 39.913 0.516677 40.075 0.388846C40.237 0.261014 40.4323 0.192139 40.6328 0.192139C40.8333 0.192139 41.0286 0.261014 41.1906 0.388846C41.3526 0.516677 41.4729 0.69687 41.5343 0.903474L47.0488 19.2746L47.0471 19.2675Z" fill="#E24329"/>
</g>
<defs>
<clipPath id="clip0_433_224">
<rect width="50" height="50" fill="white"/>
</clipPath>
</defs>
</svg>
