<svg width="82" height="50" viewBox="0 0 82 50" fill="none" xmlns="http://www.w3.org/2000/svg">
<g clip-path="url(#clip0_433_267)">
<path d="M40.5309 50.0002C40.2609 50.0002 39.9927 49.9295 39.756 49.7935L37.2893 48.3363C36.9208 48.1307 37.1006 48.058 37.2221 48.0161C37.7134 47.8445 37.813 47.8057 38.3374 47.5086C38.3925 47.4772 38.4646 47.4883 38.521 47.5215L40.4161 48.6436C40.4845 48.6805 40.5816 48.6805 40.6451 48.6436L48.034 44.3878C48.1024 44.3491 48.1468 44.2697 48.1468 44.1885V35.6808C48.1468 35.5959 48.1024 35.5202 48.0325 35.4777L40.6465 31.2257C40.5781 31.1851 40.4875 31.1851 40.419 31.2257L33.0346 35.4777C32.963 35.5184 32.9175 35.5977 32.9175 35.6789V44.1867C32.9175 44.2679 32.9619 44.3454 33.0322 44.3841L35.0556 45.5505C36.1542 46.0986 36.8256 45.4527 36.8256 44.8031V36.406C36.8256 36.2861 36.9199 36.1938 37.0401 36.1938H37.976C38.0925 36.1938 38.1887 36.2861 38.1887 36.406V44.8068C38.1887 46.2684 37.3897 47.1081 36.0007 47.1081C35.5734 47.1081 35.2368 47.1081 34.2973 46.6467L32.3589 45.532C31.8799 45.2552 31.584 44.7385 31.584 44.1867V35.6789C31.584 35.1253 31.8799 34.6085 32.3589 34.3354L39.7552 30.0778C40.2232 29.8139 40.8446 29.8139 41.3089 30.0778L48.6959 34.3372C49.1731 34.6122 49.4709 35.1271 49.4709 35.6808V44.1885C49.4709 44.7403 49.1731 45.2552 48.6959 45.532L41.3089 49.7896C41.0721 49.9262 40.8039 49.9963 40.5302 49.9963" fill="#689F63"/>
<path d="M42.8132 44.1379C39.5802 44.1379 38.9023 42.657 38.9023 41.415C38.9023 41.2969 38.9978 41.2028 39.1163 41.2028H40.0707C40.1761 41.2028 40.2649 41.2794 40.2815 41.3833C40.4258 42.3536 40.8549 42.8431 42.8099 42.8431C44.3672 42.8431 45.0293 42.492 45.0293 41.668C45.0293 41.1937 44.8407 40.8412 42.4215 40.605C40.3981 40.4057 39.1478 39.9609 39.1478 38.3461C39.1478 36.8586 40.4055 35.9728 42.5121 35.9728C44.8776 35.9728 46.0503 36.7922 46.1982 38.5528C46.2038 38.6137 46.1816 38.6728 46.1409 38.7171C46.1002 38.7595 46.0429 38.7853 45.9837 38.7853H45.0238C44.9239 38.7853 44.837 38.7152 44.8166 38.6193C44.5854 37.5987 44.0269 37.272 42.5084 37.272C40.8087 37.272 40.6108 37.8626 40.6108 38.3055C40.6108 38.8426 40.8438 38.9994 43.1372 39.3021C45.4085 39.6029 46.4867 40.0274 46.4867 41.62C46.4867 43.2256 45.144 44.1465 42.8025 44.1465M51.8023 35.1239H52.0501C52.2536 35.1239 52.2924 34.9818 52.2924 34.8987C52.2924 34.6809 52.1426 34.681 52.0594 34.681H51.8042L51.8023 35.1239ZM51.5008 34.4263H52.0501C52.2388 34.4263 52.6087 34.4263 52.6087 34.847C52.6087 35.1405 52.4201 35.2014 52.3072 35.2383C52.5273 35.2531 52.5421 35.397 52.5717 35.6C52.5865 35.7273 52.6106 35.947 52.6549 36.0208H52.3165C52.3072 35.947 52.2554 35.541 52.2554 35.5188C52.2333 35.4284 52.2018 35.3841 52.089 35.3841H51.8097V36.0226H51.5008V34.4263ZM50.8406 35.2198C50.8406 35.8805 51.3751 36.4157 52.0317 36.4157C52.6938 36.4157 53.2283 35.8695 53.2283 35.2198C53.2283 34.5573 52.6864 34.0313 52.0298 34.0313C51.3825 34.0313 50.8387 34.5499 50.8387 35.218M53.4576 35.2235C53.4576 36.006 52.8159 36.6446 52.0335 36.6446C51.2567 36.6446 50.6094 36.0134 50.6094 35.2235C50.6094 34.4189 51.2715 33.8025 52.0335 33.8025C52.8011 33.8025 53.4558 34.4207 53.4558 35.2235" fill="#689F63"/>
<path fill-rule="evenodd" clip-rule="evenodd" d="M17.6506 16.711C17.6506 16.3714 17.4712 16.0595 17.1775 15.8907L9.34355 11.3932C9.21131 11.3157 9.06316 11.2751 8.91298 11.2695H8.83197C8.68179 11.2751 8.53364 11.3157 8.39918 11.3932L0.565648 15.8907C0.273791 16.0604 0.0917969 16.3723 0.0917969 16.7119L0.108998 28.8258C0.108998 28.9937 0.195926 29.1506 0.343889 29.2336C0.488153 29.3222 0.669407 29.3222 0.813671 29.2336L5.47081 26.5724C5.76488 26.3978 5.94429 26.0893 5.94429 25.753V20.0938C5.94429 19.7561 6.12369 19.4442 6.41684 19.2762L8.39955 18.1368C8.54677 18.0519 8.70842 18.0098 8.87303 18.0098C9.03505 18.0098 9.2004 18.0516 9.34355 18.1366L11.3253 19.2757C11.6187 19.4436 11.7988 19.7555 11.7988 20.0932V25.7521C11.7988 26.088 11.9806 26.398 12.2732 26.5715L16.9274 29.2309C17.0735 29.3176 17.2553 29.3176 17.4009 29.2309C17.5444 29.1478 17.6354 28.9909 17.6354 28.823L17.6506 16.711ZM54.6169 23.0182C54.6169 23.1025 54.5719 23.1806 54.4985 23.2223L51.8078 24.7699C51.7348 24.8118 51.6445 24.8118 51.5716 24.7699L48.8806 23.2223C48.8066 23.1804 48.7622 23.1023 48.7622 23.0182V19.9185C48.7622 19.8339 48.8066 19.7561 48.8787 19.7136L51.5679 18.1634C51.6419 18.1209 51.7325 18.1209 51.8065 18.1634L54.4976 19.7136C54.5716 19.7561 54.616 19.8339 54.616 19.9185L54.6169 23.0182ZM55.3438 0.0597543C55.1969 -0.0218169 55.0182 -0.0196023 54.8732 0.0647372C54.729 0.14963 54.6398 0.304652 54.6398 0.472593V12.4684C54.6398 12.5865 54.5769 12.6954 54.4745 12.7544C54.3728 12.8135 54.2461 12.8135 54.1434 12.7544L52.1811 11.6266C51.8888 11.4579 51.5289 11.4579 51.2356 11.6266L43.3991 16.1394C43.1063 16.3074 42.9256 16.6193 42.9256 16.9551V25.9833C42.9256 26.3211 43.1063 26.6311 43.3991 26.8009L51.2356 31.3168C51.5282 31.4848 51.8885 31.4848 52.182 31.3168L60.0185 26.799C60.3107 26.6293 60.4919 26.3192 60.4919 25.9815V3.48113C60.4919 3.13861 60.3051 2.82358 60.0055 2.65619L55.3438 0.0597543ZM81.4394 19.8369C81.7306 19.6682 81.9098 19.3567 81.9098 19.0208V16.8328C81.9098 16.4962 81.7304 16.1856 81.4387 16.0161L73.6521 11.5057C73.3581 11.336 72.9974 11.336 72.7033 11.5057L64.8687 16.018C64.5746 16.1878 64.3952 16.4978 64.3952 16.8356V25.8601C64.3952 26.1996 64.5783 26.5134 64.8724 26.6813L72.6571 31.1087C72.9438 31.2729 73.2952 31.2748 73.5856 31.1142L78.2945 28.5028C78.4424 28.4198 78.5368 28.2629 78.5368 28.0931C78.5368 27.9233 78.4461 27.7646 78.2982 27.6816L70.4155 23.1675C70.2675 23.0844 70.1769 22.9276 70.1769 22.7596V19.9286C70.1769 19.7596 70.2656 19.6038 70.4136 19.5196L72.8661 18.1078C73.0122 18.0229 73.1916 18.0229 73.3377 18.1078L75.7921 19.5196C75.9382 19.6027 76.0288 19.7596 76.0288 19.9275V22.1532C76.0288 22.3211 76.1194 22.478 76.2655 22.5629C76.4117 22.6459 76.5929 22.6459 76.739 22.561L81.4394 19.8369Z" fill="#333333"/>
<path fill-rule="evenodd" clip-rule="evenodd" d="M73.064 19.4146C73.1195 19.382 73.189 19.382 73.2452 19.4146L74.7489 20.2802C74.8051 20.3127 74.8395 20.3725 74.8395 20.437V22.17C74.8395 22.2346 74.8051 22.2944 74.7489 22.3268L73.2452 23.1924C73.189 23.225 73.1195 23.225 73.064 23.1924L71.5612 22.3268C71.5039 22.2944 71.4688 22.2346 71.4688 22.17V20.437C71.4688 20.3725 71.502 20.3127 71.5594 20.2802L73.064 19.4146Z" fill="#689F63"/>
<mask id="mask0_433_267" style="mask-type:luminance" maskUnits="userSpaceOnUse" x="21" y="11" width="19" height="21">
<path d="M29.8177 11.5508L22.0256 16.0385C21.7337 16.2064 21.5547 16.5165 21.5547 16.8516V25.8333C21.5547 26.1686 21.7337 26.4785 22.0256 26.6464L29.8182 31.1377C30.1095 31.305 30.4687 31.305 30.7597 31.1377L38.551 26.6464C38.8414 26.4785 39.0208 26.1685 39.0208 25.8333V16.8516C39.0208 16.5165 38.8414 16.2064 38.5492 16.0385L30.7589 11.5508C30.6128 11.4672 30.45 11.4253 30.2873 11.4253C30.1245 11.4253 29.9618 11.4672 29.8156 11.5508" fill="white"/>
</mask>
<g mask="url(#mask0_433_267)">
<path d="M46.8946 15.2766L24.9378 4.5376L13.6797 27.4539L35.6359 38.1935L46.8946 15.2766Z" fill="url(#paint0_linear_433_267)"/>
</g>
<mask id="mask1_433_267" style="mask-type:luminance" maskUnits="userSpaceOnUse" x="21" y="11" width="18" height="21">
<path d="M21.748 26.4036C21.8226 26.5001 21.9158 26.5837 22.0255 26.6465L28.7097 30.499L29.8231 31.1375C29.9896 31.2335 30.1793 31.2741 30.3658 31.2602C30.4279 31.2552 30.4901 31.2436 30.5507 31.2265L38.769 16.2115C38.7061 16.1432 38.6325 16.086 38.55 16.038L33.4479 13.0981L30.7509 11.5497C30.6743 11.5054 30.5912 11.4741 30.5067 11.4519L21.748 26.4036Z" fill="white"/>
</mask>
<g mask="url(#mask1_433_267)">
<path d="M12.2539 18.4529L27.7577 39.3906L48.2616 24.2749L32.757 3.33765L12.2539 18.4529Z" fill="url(#paint1_linear_433_267)"/>
</g>
<mask id="mask2_433_267" style="mask-type:luminance" maskUnits="userSpaceOnUse" x="22" y="11" width="18" height="21">
<path d="M30.1951 11.4305C30.0644 11.4434 29.9366 11.484 29.8187 11.5508L22.0488 16.0256L30.4272 31.2529C30.5438 31.2362 30.6584 31.1975 30.762 31.1377L38.5541 26.6465C38.7945 26.5073 38.9592 26.2718 39.0091 26.005L30.4679 11.4458C30.405 11.4335 30.3422 11.427 30.2774 11.427C30.2515 11.427 30.2256 11.4283 30.1997 11.4307" fill="white"/>
</mask>
<g mask="url(#mask2_433_267)">
<path d="M22.0488 11.427V31.2532H39.0059V11.427H22.0488Z" fill="url(#paint2_linear_433_267)"/>
</g>
</g>
<defs>
<linearGradient id="paint0_linear_433_267" x1="35.9096" y1="9.8902" x2="24.6919" y2="32.8244" gradientUnits="userSpaceOnUse">
<stop offset="0.3" stop-color="#3E863D"/>
<stop offset="0.5" stop-color="#55934F"/>
<stop offset="0.8" stop-color="#5AAD45"/>
</linearGradient>
<linearGradient id="paint1_linear_433_267" x1="20.0987" y1="29.0418" x2="40.5718" y2="13.8815" gradientUnits="userSpaceOnUse">
<stop offset="0.57" stop-color="#3E863D"/>
<stop offset="0.72" stop-color="#619857"/>
<stop offset="1" stop-color="#76AC64"/>
</linearGradient>
<linearGradient id="paint2_linear_433_267" x1="22.0545" y1="21.3407" x2="39.0091" y2="21.3407" gradientUnits="userSpaceOnUse">
<stop offset="0.16" stop-color="#6BBF47"/>
<stop offset="0.38" stop-color="#79B461"/>
<stop offset="0.47" stop-color="#75AC64"/>
<stop offset="0.7" stop-color="#659E5A"/>
<stop offset="0.9" stop-color="#3E863D"/>
</linearGradient>
<clipPath id="clip0_433_267">
<rect width="81.8182" height="50" fill="white" transform="translate(0.0917969)"/>
</clipPath>
</defs>
</svg>
