<svg width="82" height="50" viewBox="0 0 82 50" fill="none" xmlns="http://www.w3.org/2000/svg">
<g clip-path="url(#clip0_433_377)">
<path d="M3.16009 50.0908C3.16009 50.0908 4.2236 39.5993 11.6656 27.1901C19.1102 14.7808 31.8017 5.39067 42.1167 4.46577C62.6409 2.40932 81.0784 20.809 81.0784 20.809C81.0784 20.809 80.4736 21.2324 79.8335 21.7667C59.6999 6.88009 47.4015 13.8962 43.5331 15.7763C25.8088 25.6679 31.1591 50.0908 31.1591 50.0908H3.16513H3.16009ZM61.5069 6.45166C60.3728 5.99299 59.2387 5.5696 58.0694 5.17898L58.2105 2.83523C60.4408 3.47535 61.3279 3.90126 61.6455 4.07767L61.5043 6.45418L61.5069 6.45166ZM58.1374 13.9718C59.2715 14.0424 60.4434 14.1835 61.648 14.433L61.5069 16.6306C60.3375 16.3786 59.1682 16.24 57.9988 16.2022L58.1399 13.9718H58.1374ZM45.025 2.90579C43.9993 2.90579 42.9711 2.9436 41.9429 3.05196L41.2675 0.960229C42.4393 0.8191 43.5734 0.748535 44.6697 0.748535L45.3804 2.91083H45.0275L45.025 2.90579ZM46.7286 15.9552C47.6107 15.5671 48.644 15.1739 49.8461 14.8211L50.6273 17.1649C49.5941 17.4799 48.5684 17.9058 47.5401 18.3997L46.7261 15.9552H46.7286ZM30.6349 6.63059C29.7125 7.0943 28.8254 7.62606 27.9056 8.19309L26.275 5.71073C27.2327 5.1437 28.1525 4.65227 29.0396 4.18856L30.6349 6.63059ZM37.9005 22.5832C38.5356 21.7692 39.2816 20.9552 40.0931 20.2092L41.6908 22.621C40.9096 23.435 40.2039 24.2516 39.5991 25.1412L37.9005 22.5832ZM32.7594 33.9995C33.0416 32.7243 33.3642 31.4113 33.8229 30.1009L36.3733 32.122C36.0205 33.5031 35.7685 34.8866 35.6299 36.2677L32.7594 33.9995ZM17.2352 17.1623C16.3783 18.0444 15.5668 19.0021 14.8209 19.9597L12.0941 17.621C12.9081 16.7339 13.7927 15.8468 14.715 14.9622L17.2352 17.1598V17.1623ZM6.52451 33.0041C5.95999 34.3146 5.21403 36.0535 4.75536 37.2581L0.677734 35.7712C1.03056 34.8136 1.77652 33.0394 2.44941 31.5121L6.52703 33.0041H6.52451ZM32.2302 43.0016L36.0558 44.3826C36.2675 46.0535 36.585 47.6084 36.9051 48.9945L32.651 47.4698C32.4746 46.4063 32.2982 44.8816 32.2276 43.0041L32.2302 43.0016Z" fill="#CC0000"/>
</g>
<defs>
<clipPath id="clip0_433_377">
<rect width="80.6452" height="50" fill="white" transform="translate(0.677734)"/>
</clipPath>
</defs>
</svg>
