<svg width="74" height="50" viewBox="0 0 74 50" fill="none" xmlns="http://www.w3.org/2000/svg">
<g clip-path="url(#clip0_433_353)">
<path d="M0.257812 50.001H16.1669L17.3033 36.3637L2.52959 32.9556L0.257812 50.001Z" fill="#4C4C4C"/>
<path d="M3.09961 30.6819L17.3042 34.091L20.7132 22.1592L8.78143 15.9102L3.09961 30.6819Z" fill="#4C4C4C"/>
<path d="M9.91602 13.6364L21.2797 19.8864L30.3715 13.6364L21.8488 3.97729L9.91602 13.6364Z" fill="#4C4C4C"/>
<path d="M73.5513 50.001H57.6432L56.5059 36.3637L71.2795 32.9556L73.5513 50.001Z" fill="#4C4C4C"/>
<path d="M70.7123 30.6819L56.5078 34.091L53.0996 22.1592L65.0305 15.9102L70.7123 30.6819Z" fill="#4C4C4C"/>
<path d="M63.8931 13.6364L52.5294 19.8864L43.4395 13.6364L51.9622 3.97729L63.8931 13.6364Z" fill="#4C4C4C"/>
<path d="M24.6895 2.27273L33.2122 12.5H41.1658L48.5531 2.27273L41.1658 0H33.0124L24.6895 2.27273Z" fill="#4C4C4C"/>
<path d="M0.257812 50.001H16.1669L17.3033 36.3637L2.52959 32.9556L0.257812 50.001Z" fill="#9C0000"/>
<path d="M3.09961 30.6819L17.3042 34.091L20.7132 22.1592L8.78143 15.9102L3.09961 30.6819Z" fill="#B50808"/>
<path d="M9.91602 13.6364L21.2797 19.8864L30.3715 13.6364L21.8488 3.97729L9.91602 13.6364Z" fill="#C61818"/>
<path d="M73.5513 50.001H57.6432L56.5059 36.3637L71.2795 32.9556L73.5513 50.001Z" fill="#9C0000"/>
<path d="M70.7123 30.6819L56.5078 34.091L53.0996 22.1592L65.0305 15.9102L70.7123 30.6819Z" fill="#B50808"/>
<path d="M63.8931 13.6364L52.5294 19.8864L43.4395 13.6364L51.9622 3.97729L63.8931 13.6364Z" fill="#C61818"/>
<path d="M24.6895 2.27273L33.2122 12.5H41.1658L48.5531 2.27273L41.1658 0H33.0124L24.6895 2.27273Z" fill="#CE3129"/>
</g>
<defs>
<clipPath id="clip0_433_353">
<rect width="73.4848" height="50" fill="white" transform="translate(0.257812)"/>
</clipPath>
</defs>
</svg>
