<svg width="50" height="50" viewBox="0 0 50 50" fill="none" xmlns="http://www.w3.org/2000/svg">
<g clip-path="url(#clip0_433_374)">
<path d="M42.5 0H7.5C3.35786 0 0 3.35786 0 7.5V42.5C0 46.6421 3.35786 50 7.5 50H42.5C46.6421 50 50 46.6421 50 42.5V7.5C50 3.35786 46.6421 0 42.5 0Z" fill="#88171A"/>
<path d="M23.2422 5.17578L26.6602 5.95703V6.15234C25.1953 6.34766 23.7305 5.76172 22.2656 5.66406C23.3398 6.34766 24.5117 6.73828 25.6836 7.12891C23.8281 8.69141 22.2656 6.64063 20.2148 8.00781C22.168 8.98438 22.0703 8.78906 22.2656 10.6445C21.3867 10.7422 19.9219 11.6211 19.6289 12.207C20.8984 12.5 22.3633 12.207 23.6328 12.9883C23.2422 13.2813 22.2656 13.6719 21.875 13.9648C22.7539 14.1602 23.8281 13.7695 24.3164 14.0625C26.1719 15.625 29.5898 17.7734 30.5664 19.9219C32.2266 23.5352 28.418 27.4414 24.707 28.0273C19.5312 29.1016 16.6016 34.4727 18.457 39.4531C20.3125 44.3359 26.0742 46.4844 30.6641 43.9453C37.1094 40.0391 36.1328 33.3984 32.2266 29.7852C32.0312 29.5898 31.8359 29.5898 31.6406 29.7852C30.2734 30.6641 28.8086 31.4453 27.2461 32.1289C30.7617 32.9102 31.25 35.5469 30.8594 37.4023C29.5898 42.0898 23.2422 41.0156 22.5586 37.0117C22.2656 35.1563 23.2422 33.3008 24.9023 32.5195C30.6641 29.9805 33.3984 29.5898 35.0586 23.0469C35.6445 19.3359 34.7656 17.3828 32.0312 15.2344C30.957 14.1602 28.8086 13.4766 28.125 11.8164C28.0273 11.6211 28.2227 11.2305 28.418 11.2305C29.3945 11.0352 33.2031 10.9375 33.2031 11.1328C33.8867 11.8164 34.4727 10.7422 34.7656 10.2539C33.7891 10.0586 32.7148 10.1563 31.9336 10.1563C31.8359 10.1563 31.6406 9.96094 31.543 9.86328C31.6406 9.76563 31.8359 9.66797 31.9336 9.66797H35.9375C35.9375 8.98438 35.0586 8.00781 34.1797 7.8125V8.10547C33.3984 8.20313 32.6172 8.00781 31.8359 7.71484C31.4453 7.42188 31.1523 6.83594 30.7617 6.64063C29.1992 5.76172 27.5391 5.07812 25.4883 5.07812C24.5117 5.07812 23.8281 5.17578 23.2422 5.17578ZM30.4688 8.10547L30.7617 8.39844L30.3711 8.59375C30.1758 8.69141 30.0781 8.59375 29.9805 8.49609C29.7852 8.20313 30.3711 8.00781 30.4688 8.10547ZM18.75 17.4805C13.4766 20.7031 13.7695 28.125 18.457 31.0547C18.8477 31.25 19.043 31.25 19.2383 30.957C20.4102 29.4922 21.4844 28.8086 22.7539 28.0273C20.3125 27.6367 19.043 26.4648 19.1406 24.8047C18.75 18.9453 27.2461 19.5313 26.3672 25C26.1719 25.9766 25.5859 26.8555 24.8047 27.4414C27.4414 26.8555 29.3945 25.3906 30.1758 22.7539C30.3711 21.9727 30.3711 20.8984 29.9805 20.2148C27.0508 15.918 22.6562 15.0391 18.75 17.4805ZM12.6953 36.5234C14.2578 35.8398 15.918 35.5469 17.4805 35.2539C17.5781 33.9844 17.9688 32.7148 18.75 31.7383C15.8203 31.7383 13.3789 33.6914 12.6953 36.5234Z" fill="white"/>
</g>
<defs>
<clipPath id="clip0_433_374">
<rect width="50" height="50" fill="white"/>
</clipPath>
</defs>
</svg>
